<svg xmlns="http://www.w3.org/2000/svg" xmlns:xlink="http://www.w3.org/1999/xlink" viewBox="0 0 20 22.08"><defs><style>.cls-1,.cls-4{fill:none;}.cls-2{clip-path:url(#clip-path);}.cls-3{opacity:0.8;}.cls-4{stroke:#11cdef;stroke-linecap:round;stroke-linejoin:round;stroke-width:2px;}</style><clipPath id="clip-path" transform="translate(0 -0.03)"><rect class="cls-1" width="20" height="22.11"/></clipPath></defs><g id="Layer_2" data-name="Layer 2"><g id="Layer_1-2" data-name="Layer 1"><g class="cls-2"><g id="package" class="cls-3"><line id="Line_4" data-name="Line 4" class="cls-4" x1="14.5" y1="8.4" x2="5.5" y2="3.21"/><path id="Path_439" data-name="Path 439" class="cls-4" d="M19,15V7A2,2,0,0,0,18,5.3l-7-4a2,2,0,0,0-2,0l-7,4A2,2,0,0,0,1,7v8a2,2,0,0,0,1,1.73l7,4a2,2,0,0,0,2,0l7-4A2,2,0,0,0,19,15Z" transform="translate(0 -0.03)"/><path id="Path_440" data-name="Path 440" class="cls-4" d="M1.27,6,10,11l8.73-5" transform="translate(0 -0.03)"/><line id="Line_5" data-name="Line 5" class="cls-4" x1="10" y1="21.08" x2="10" y2="11"/></g></g></g></g></svg>