<svg xmlns="http://www.w3.org/2000/svg" viewBox="0 0 534.14 341.87"><defs><style>.cls-1{opacity:0.8;}.cls-2,.cls-5,.cls-6,.cls-7{fill:none;}.cls-2{stroke:#8898aa;stroke-dasharray:3;}.cls-3,.cls-4{isolation:isolate;}.cls-4{font-size:11px;fill:#8898aa;font-family:SegoeUI, Segoe UI;}.cls-5{stroke:#7764e4;}.cls-5,.cls-6,.cls-7{stroke-linecap:round;stroke-width:6px;}.cls-6{stroke:#2dce98;}.cls-7{stroke:#11cdef;}</style></defs><g id="Layer_2" data-name="Layer 2"><g id="Layer_1-2" data-name="Layer 1"><g id="Group_116" data-name="Group 116"><g id="Group_107" data-name="Group 107" class="cls-1"><line id="Line_28" data-name="Line 28" class="cls-2" x1="50.5" y1="6.85" x2="534.14" y2="6.85"/><line id="Line_29" data-name="Line 29" class="cls-2" x1="50.5" y1="56.85" x2="534.14" y2="56.85"/><line id="Line_30" data-name="Line 30" class="cls-2" x1="50.5" y1="106.85" x2="534.14" y2="106.85"/><line id="Line_31" data-name="Line 31" class="cls-2" x1="50.5" y1="156.85" x2="534.14" y2="156.85"/><line id="Line_32" data-name="Line 32" class="cls-2" x1="50.5" y1="206.85" x2="534.14" y2="206.85"/><line id="Line_33" data-name="Line 33" class="cls-2" x1="50.5" y1="256.85" x2="534.14" y2="256.85"/><line id="Line_34" data-name="Line 34" class="cls-2" x1="50.5" y1="306.85" x2="534.14" y2="306.85"/></g><g id="Group_108" data-name="Group 108"><g id="_0K" data-name=" 0K" class="cls-3"><text class="cls-4" transform="translate(7 311.35)">$0K</text></g><g id="_10K" data-name=" 10K" class="cls-3"><text class="cls-4" transform="translate(3 259.35)">$10K</text></g><g id="_20K" data-name=" 20K" class="cls-3"><text class="cls-4" transform="translate(1 210.35)">$20K</text></g><g id="_30K" data-name=" 30K" class="cls-3"><text class="cls-4" transform="translate(0 161.35)">$30K</text></g><g id="_40K" data-name=" 40K" class="cls-3"><text class="cls-4" transform="translate(0 110.35)">$40K</text></g><g id="_50K" data-name=" 50K" class="cls-3"><text class="cls-4" transform="translate(0 59.35)">$50K</text></g><g id="_60K" data-name=" 60K" class="cls-3"><text class="cls-4" transform="translate(0 9.35)">$60K</text></g></g><g id="Group_109" data-name="Group 109"><g id="May" class="cls-3"><text class="cls-4" transform="translate(81 337.35)">Jun</text></g><g id="May-2" class="cls-3"><text class="cls-4" transform="translate(161 337.35)">Jul</text></g><g id="May-3" class="cls-3"><text class="cls-4" transform="translate(234 337.35)">Aug</text></g><g id="May-4" class="cls-3"><text class="cls-4" transform="translate(313 337.35)">Sep</text></g><g id="May-5" class="cls-3"><text class="cls-4" transform="translate(390 337.35)">Oct</text></g><g id="May-6" class="cls-3"><text class="cls-4" transform="translate(466 337.35)">Nov</text></g></g><g id="Group_110" data-name="Group 110"><line id="Line_35" data-name="Line 35" class="cls-5" x1="92.5" y1="303.85" x2="92.5" y2="138.85"/><line id="Line_63" data-name="Line 63" class="cls-6" x1="105.5" y1="303.85" x2="105.5" y2="249.85"/><line id="Line_64" data-name="Line 64" class="cls-7" x1="79.5" y1="303.85" x2="79.5" y2="211.85"/></g><g id="Group_111" data-name="Group 111"><line id="Line_35-2" data-name="Line 35-2" class="cls-5" x1="169.5" y1="303.85" x2="169.5" y2="198.85"/><line id="Line_63-2" data-name="Line 63-2" class="cls-6" x1="182.5" y1="303.85" x2="182.5" y2="116.85"/><line id="Line_64-2" data-name="Line 64-2" class="cls-7" x1="156.5" y1="303.85" x2="156.5" y2="171.85"/></g><g id="Group_112" data-name="Group 112"><line id="Line_35-3" data-name="Line 35-3" class="cls-5" x1="246.5" y1="303.85" x2="246.5" y2="260.85"/><line id="Line_63-3" data-name="Line 63-3" class="cls-6" x1="259.5" y1="303.85" x2="259.5" y2="244.85"/><line id="Line_64-3" data-name="Line 64-3" class="cls-7" x1="233.5" y1="303.85" x2="233.5" y2="227.85"/></g><g id="Group_113" data-name="Group 113"><line id="Line_35-4" data-name="Line 35-4" class="cls-5" x1="323.5" y1="303.85" x2="323.5" y2="249.85"/><line id="Line_63-4" data-name="Line 63-4" class="cls-6" x1="336.5" y1="303.85" x2="336.5" y2="278.85"/><line id="Line_64-4" data-name="Line 64-4" class="cls-7" x1="310.5" y1="303.85" x2="310.5" y2="201.85"/></g><g id="Group_114" data-name="Group 114"><line id="Line_35-5" data-name="Line 35-5" class="cls-5" x1="400.5" y1="303.85" x2="400.5" y2="192.85"/><line id="Line_63-5" data-name="Line 63-5" class="cls-6" x1="413.5" y1="303.85" x2="413.5" y2="81.85"/><line id="Line_64-5" data-name="Line 64-5" class="cls-7" x1="387.5" y1="303.85" x2="387.5" y2="256.85"/></g><g id="Group_115" data-name="Group 115"><line id="Line_35-6" data-name="Line 35-6" class="cls-5" x1="477.5" y1="303.85" x2="477.5" y2="142.85"/><line id="Line_63-6" data-name="Line 63-6" class="cls-6" x1="490.5" y1="303.85" x2="490.5" y2="156.85"/><line id="Line_64-6" data-name="Line 64-6" class="cls-7" x1="464.5" y1="303.85" x2="464.5" y2="223.85"/></g></g></g></g></svg>