<svg xmlns="http://www.w3.org/2000/svg" xmlns:xlink="http://www.w3.org/1999/xlink" viewBox="0 0 24 24"><defs><style>.cls-1,.cls-4{fill:none;}.cls-2{clip-path:url(#clip-path);}.cls-3{opacity:0.8;}.cls-4{stroke:#fb6340;stroke-linecap:round;stroke-linejoin:round;stroke-width:2px;}</style><clipPath id="clip-path"><rect class="cls-1" width="24" height="24"/></clipPath></defs><g id="Layer_2" data-name="Layer 2"><g id="Layer_1-2" data-name="Layer 1"><g class="cls-2"><g id="settings" class="cls-3"><circle id="Ellipse_341" data-name="Ellipse 341" class="cls-4" cx="12" cy="12" r="3"/><path id="Path_445" data-name="Path 445" class="cls-4" d="M19.4,15a1.66,1.66,0,0,0,.33,1.82l.06.06A2,2,0,1,1,17,19.71l-.06-.06a1.66,1.66,0,0,0-2.35,0,1.61,1.61,0,0,0-.47,1.14V21a2,2,0,0,1-4,0v-.09A1.64,1.64,0,0,0,9,19.4a1.66,1.66,0,0,0-1.82.33l-.06.06A2,2,0,0,1,4.29,17l.06-.06a1.66,1.66,0,0,0,0-2.35,1.61,1.61,0,0,0-1.14-.47H3a2,2,0,0,1,0-4h.09A1.64,1.64,0,0,0,4.6,9a1.66,1.66,0,0,0-.33-1.82l-.06-.06A2,2,0,0,1,7,4.29l.06.06a1.66,1.66,0,0,0,1.82.33H9a1.65,1.65,0,0,0,1-1.51V3a2,2,0,0,1,4,0v.09a1.66,1.66,0,0,0,1.68,1.65,1.69,1.69,0,0,0,1.14-.47l.06-.06A2,2,0,1,1,19.71,7l-.06.06a1.66,1.66,0,0,0-.33,1.82V9a1.65,1.65,0,0,0,1.51,1H21a2,2,0,0,1,0,4h-.09A1.65,1.65,0,0,0,19.4,15Z"/></g></g></g></g></svg>