<svg xmlns="http://www.w3.org/2000/svg" viewBox="0 0 462.03 228.65"><defs><style>.cls-1,.cls-2{fill:#f1f3f9;}.cls-1{fill-rule:evenodd;}.cls-3,.cls-4,.cls-5,.cls-6{fill:none;}.cls-3{stroke:#fb6340;}.cls-4{stroke:#f53c56;}.cls-5{stroke:#7764e4;}.cls-6{stroke:#2dce98;}.cls-7{fill:#feb969;}</style></defs><g id="Layer_2" data-name="Layer 2"><g id="Layer_1-2" data-name="Layer 1"><path id="Map-2" class="cls-1" d="M234.15,95.59c-.45-.23-1.19.2-1.08.51s.38.48,1.33.72,1.06.9,1.46.92.44-.37.34-.88.47-1.1.53-1.2-.24-.25-1-.08S234.61,95.82,234.15,95.59Zm-6.24-2.44c-.17.74.1,1.68.54,1.24s.64-.23.89-.55,0-1.52.21-2.09-.76-.84-1.18-.48-.76-.06-.93.23S228.09,92.41,227.91,93.15ZM353.41,152c.3.49.69,0,.69-.31s-1-.17-.68.31Zm10,7.08c.76-.57-1.25-.34-1.29-.8s-1.52,0-2.24-.34.8-.58,1.29-.88-.3-.42-1.52,0-2.61-.83-2.65-.3-2.2-.23-2.73-.61-2.58-.87-3-.15-.78.08-.61.76c.12.46.61.19.95.19s.19.65.68.73,2.13.53,2.28.19,1.67,0,2.42.61a5.19,5.19,0,0,0,3.19.53c.68-.12,1.44.45,1.71.07S362.67,159.61,363.43,159Zm-12.1-6.81c0-.27.19-.38.53-.3s.3-.73,0-.8-.41-1-1.06-1-.53.53-.15.57.61.34.49.61-.26-.27-.8-.23-.18-.65-.8-.69-.49-1.14-1.13-1.14-.69-.53-.27-.91-.64-.72-.64-1.18-.69-.19-.69-.57-.3-.19-.64-.65-.49,0-.8-.38a1,1,0,0,0-1-.42c-.26.12-.87-.5-1.1-1.1s-1.93-1.29-2.16-1.94-.83-.91-1.85-.87-1.43-1-1.67-.5,1.1,2.1,1.74,2.48,1,1.75,1.75,1.82.83,2.48,1.4,2.59,1.78,2,2,3,1.44,1.48,1.86,2.21,2.08,1.71,2.31,2,.45,1,.64.65,1,0,1.37,0,.49-1.37.45-1.9a10.09,10.09,0,0,1,.21-1.34Zm-10.7-5.14c.46-.46-.72-1.4-.8-1s.35,1.49.81,1Zm1.67,3c.27-.23-.37-1.33-.61-.73-.06.2.35,1,.62.73Zm25.57,10.39c.22.34.87.34,1.13.57s1.22.72,1.22.07S367.61,160.06,367.87,160.45ZM355.5,148.88c.27.42,1.1.49,1.1,1.29s.72,2.06,1.21,1.71.88.16,1,.5,1.33-.27,1.71-.19,1.55.3,1.63.76,1.13,0,1.85-.3.3-2.44,1-2.85a2,2,0,0,0,.76-2c-.08-.76,1.67-.8,1.93-1.1s-.38-.8-.87-1-.08-.72-.42-1-.91-1.1-.41-1.14-.34-.72.07-1l.19-.1c.45-.22,1.1-.52.8-.78s1,0,1.18-.49-.53-.84-.87-.76-1.14,0-1.14-.3-.72-1-1.18-1-1,.91-1,1.29-.76.34-.68.87c0,.21-.1.3-.28.36s-.64.08-.64.29-.57-.12-.88-.15-1,1.07-1.16,1.79-.84.49-1.86.57-.61,1.14-.84,1.64-1.33-.37-1.9-.49h-.14c-.49,0-1.31,1.34-.84,1.79S355.24,148.46,355.5,148.88Zm23.44-3.2c-.61.83.2,2.9.68,2.81s-.34-1.1.49-1,.46-.42.46-1-.76-.07-.76-.34-.26-1.33-.87-.49Zm-10.47,6.88c.57,0,.5.88.38,1.37s-.34,1.67.15,1.49,1-1,.65-1.26-.3-1.94-.15-2.36,1.17-.11.83.54.65.57.65,1.29.56.34,1.17.15.49-.53.08-1,.3-1.1-.27-1.48-.95-.95-.42-1.07,2.13-1,1.94-1.4-2.43.07-2.62.76-1.78-.08-1.59-1.26,3.34-1.37,4.25-1,1.9-.69,2.23-1.33-.72.11-1.36.53-2.35,0-3.22-.34-.84.53-1.56.64-.57,1.72-.91,1.9-.34,1.37-1,2.48.22,1.26.79,1.3Zm12.9-.15c.8,0,1.21.57,1.63.57s.11-1-.87-1.29-2.67,0-2.5.46.94.27,1.74.27Zm-2.81.23c.3-.53-1.73-1.12-1.56-.42s1.26,1,1.56.43Zm-3,7.79.18-.22a.63.63,0,0,1,.12-.11L376,160c.74-.43,2.6-1,2.7-1.24s-1.13.07-1.9,0c-.51,0-.71.4-1.1.7l-.11.07a1.07,1.07,0,0,1-.41.18l-.17,0h0a1.17,1.17,0,0,0-.41.1c-.73.3-1.12,1.19-.61,1.46s1.21-.42,1.61-.91Zm-10.74-1.7c-.38-.26-.85.36-.61.69a1.64,1.64,0,0,0,1.86.3c.95-.46,1.59,0,1.82-.54s-1.75-1-1.9-.6a.85.85,0,0,1-1.17.15Zm9.21-.07c-1-.15-1.71.61-2.73.23s-2.56,0-2.39.34,1.06.34,2.09.38a16.64,16.64,0,0,0,2.61-.57c.68,0,1.44-.23.42-.38ZM138,134.53c.26-.11.23-.5-.07-.75s-1.23.13-.94.26-.14.45,0,.6S137.69,134.63,138,134.53Zm-22.42-19.69c0,.52.42.57.43.87s.44.69.52.52-.31-.57-.35-.79.13-.52-.13-1S115.54,114.33,115.54,114.84ZM426.34,175c.08.46,3.26,2.9,3.72,2.59S426.26,174.48,426.34,175ZM358.77,27.38c.37.5,2.27.23,2.31-.38s-1.4-.53-1.56-.23S358.55,27.1,358.77,27.38Zm-7.3,46.08c0,.8-2.62,1.2-2.85.86s1.94-.4,2.45-1.55,2.45-1.72,3.41-3.25c.68-1.08,1.25-2.74,1.65-2.62s-.34,3.6-1.42,4.56-3.25,1.2-3.25,2Zm1.7,55.79a2.83,2.83,0,0,1,0-.41v0a3.15,3.15,0,0,0,0,.44Zm-6.92-11a.2.2,0,0,0,.08,0l0,0Zm-1.35,1.09s0,0,0,0,0,0-.07,0Zm-11-8.43h0l-.09,0Zm-4.62-.14.07-.06a.24.24,0,0,0-.09.08s0,0,0,0Zm-.25-32.55h0Zm-.8-.29.09.09-.08-.07a0,0,0,0,1,0,0Zm-7.88,29.71a.29.29,0,0,0,.08-.14.11.11,0,0,1,0,.08l-.05.06Zm-7.66-24.24c-1,1-.27,1.56-.69,1.63s-.68-1.56-.15-2.09a4.39,4.39,0,0,1,3.3-.49c1.07.26,3-.23,3.23-.16s-.27.61-1.33.61S313.68,82.4,312.73,83.43ZM318,102.09c0-.07,0-.15,0-.23s0,0,0,.08,0,.1,0,.15ZM317,100l0,0-.06-.06,0,0Zm-.82-.13v0Zm-3.48-2.48a1.7,1.7,0,0,0-.32-.1,1.73,1.73,0,0,1,.32.11Zm.23.15a0,0,0,0,1,0,0l.24,0-.24,0Zm-1.28-3.73-.46.06.46-.06Zm-.1,3.09c-.16-.1-.57.21-1,.56.41-.35.82-.66,1-.56Zm-2,1.13-.08,0Zm-2.38-5.27a2.11,2.11,0,0,1-.35,0,2.06,2.06,0,0,0,.35,0Zm.06-2.31-.15,0,.13,0a0,0,0,0,0,0,0Zm-13.43-7.82c-.13-.33,2.1,0,1.78.49-.16.21-1.66-.18-1.78-.49Zm1.66,17.15.07,0-.09,0,0,0Zm-.53,8.48a.91.91,0,0,1-.18-.21,1.2,1.2,0,0,0,.17.21Zm-.72-21.89c-.95.69-1.86.57-1.56-.26s.34-1.83-.15-1.83-.15,1.75-.53,1.86-.47-1.27-.19-2a2.12,2.12,0,0,1,.11-.21c.42-.61,1-.1,1.18,0s.07-.65.53-.61,0,.76.3.76.87.94.68,1.69a.93.93,0,0,1-.38.55Zm-5.82,4.34h0Zm-2.9,1.26c-.46-.16-1-.54-1.18,0S284,93,284.56,93s.49.38.08.8.64-.08.72.3.41.42.26,1a8.24,8.24,0,0,0,0,1.72,1.73,1.73,0,0,1,0,.68,5.78,5.78,0,0,1-2.77.6c-1.1,0-1.17-1.4-2.35-1.4a1.65,1.65,0,0,1-1.55-1.52,1.12,1.12,0,0,1,.23-.77c.64-.8,1.13-2,.75-2.74a16.18,16.18,0,0,0-1.14-1.48c-.72-.89-1.5-1.87-1.47-2.25,0-.64.3-1.06-.5-1.75s.08-1.14.65-1.86S279,83.41,279.7,83l.23-.17a3.41,3.41,0,0,1,2.69-.88c.88.23,1.6-.15,2,.38s0,1.53.15,1.9-.69.42-1.25.35-1.75.23-1.6.57.57,1.14-.18.72-1.07.42-.65.42,1,.49,1,.84,0,1.1.41,1,.38.58.91.54,1,.15.61.64.27,1.87.42,1.56,0-.6.16-.87a.57.57,0,0,1,.6-.23c.91.08.49,1.14,1,1.18s1.07.8.61.76-.84.43-1.3.28Zm-8.36,1.85a5.56,5.56,0,0,1-.87.52,5,5,0,0,0,.86-.52ZM276,90h0l-.22-.13c.07.06.15.1.22.15Zm6.92,32.73-.08,0,.17,0Zm-8.6-31.77.09.14-.08-.12S274.34,90.93,274.33,90.93Zm-.46,2.36Zm-.34-.29h-.12a.48.48,0,0,1,.12,0Zm-1.63-1.91a.3.3,0,0,1,0,.08.83.83,0,0,0-.09-.16.22.22,0,0,1,0,.08Zm-4.78,13.38h-.59l.59,0Zm-7.6,42.95c.5.13.88.32.85.47-.06.32-.91.17-.91.83a.53.53,0,0,1,0,.13,1.33,1.33,0,0,1-.62,1.21c-.37.17.51.71.09.8s-1.39-.4-2.08-.11c-.46.19-.36-1,0-2,.23-.68.58-1.29,1-1.4a3.54,3.54,0,0,1,1.71,0ZM261,166c-.33.49-1.28-1-1.39-2s.54-1.4.14-2.28-.54-1.45-.3-1.67a.26.26,0,0,1,.19-.07c.43,0,.94,1.65.92,2.61a1.31,1.31,0,0,1-.07.44c-.25.65.51,2.1.55,2.73a.32.32,0,0,1,0,.21Zm-2.42-5.92,0,.1-.13-.23a.57.57,0,0,1,.08.13Zm-.38,5.77h0Zm4.76-37a.13.13,0,0,0,0-.06s0,0,0,0h0Zm7.42,2.48h0l0,0ZM256,177.1l0,0a.13.13,0,0,0-.07,0ZM254.9,158c-.29-.48-.58-1.12-.93-1.31-.63-.35-.89-4.66-.57-4.77q.06,0,.12.12a8.71,8.71,0,0,1,.32,1.34,6.08,6.08,0,0,0,.78,2.45c.66.6.54,1.28.68,1.68s.71.86.32,1-.49-.16-.72-.54Zm-1.62,18.58a.47.47,0,0,0-.41-.5.47.47,0,0,1,.41.5h0Zm1.78-25.91h0ZM250.86,140l.3.74,0,0Zm-5.06,30.79.15,0-.22.05.07,0Zm-.19-37.55.16.19-.16-.19Zm-8,10.8-.08.13.08-.13Zm-1.44-26.83-1,.55,2.16-1.17Zm.56,20.54a.53.53,0,0,0,.12.14.45.45,0,0,1-.11-.13ZM235,130.5a.33.33,0,0,0,.13,0H235s0,0-.07,0Zm-2,14.18,1,0h-.16l-.85,0Zm-1.29,0-.32.09.56-.16Zm-2.31-37.49.16-.12-.22.17ZM220.27,132v0Zm-2.33,1.31a.74.74,0,0,0,.21,0,.67.67,0,0,1-.2,0Zm-1.26,0a.32.32,0,0,1,.29-.15.4.4,0,0,0-.15,0,.53.53,0,0,0-.14.12Zm-.09.15s0-.09.08-.14l-.08.14ZM213.26,135h0Zm-3.47-.87a.58.58,0,0,1,.21.07.61.61,0,0,0-.24-.07Zm-3.27.24a.57.57,0,0,0,.13.08l-.12-.07h0Zm-.36,3.68s0,0,0,0,0,0,0,.05v0Zm-2.66-1.13a.24.24,0,0,0-.05-.14.18.18,0,0,1,0,.09.11.11,0,0,1,0,.05Zm-1.27-5.25a.94.94,0,0,1,0,.14A1.13,1.13,0,0,0,202.23,131.62ZM201,128.44a1,1,0,0,0,0,.1l-.06-.12,0,0Zm56-55.72,0,.09s0,0,0,0l0-.08Zm-4.38-7.08a.32.32,0,0,0,.08.14.18.18,0,0,1-.06-.09l0,0Zm-1.28,13.58-.47.13a4.94,4.94,0,0,1,.48-.13Zm.26-16.1v0a0,0,0,0,0,0,0Zm-4.9,6.53v0a.14.14,0,0,1,0,.11.27.27,0,0,0,0-.13Zm-1,10.22v0a0,0,0,0,1,0,0h0Zm0-10.8s0,0,0-.06v0s0,.09.05.09Zm-.48,17.26a.22.22,0,0,0,.1-.13h0a.23.23,0,0,1-.1.12Zm0-6.78,0,0,0,0Zm-.07,9.54h0a.17.17,0,0,0,0,.1.16.16,0,0,1,0-.09Zm0-.16v0Zm-1.55,2.47h0Zm-.13,0,0,0h0c-.05,0-.08,0-.1.06a.1.1,0,0,1,0,0Zm-.78-2.26.25.18-.08-.06Zm-.07,0-.27-.18.27.17Zm.2-6s-.06,0-.06.08a.09.09,0,0,1,0-.06l0,0Zm-1.11,5.54h0l-.09,0,.05,0Zm-1.06-11.31a.85.85,0,0,0,.17.16.8.8,0,0,1-.17-.15Zm-3,5.06.08-.07,0,0Zm-.23-.55,0,0s0,0,0,0h0ZM236.05,75a.91.91,0,0,0,.07-.14A.91.91,0,0,1,236.05,75Zm-2.53,7.23h0Zm-4.13-1.32h0a.41.41,0,0,0,0,.16.77.77,0,0,1,0-.15Zm-2.72-.21a.27.27,0,0,0,0-.12.19.19,0,0,1,0,.08.05.05,0,0,1,0,0ZM226,83.58a.49.49,0,0,0,.15.61.49.49,0,0,1-.14-.63v0Zm-.73-5.94h0l-.09,0,.08,0Zm-.39-1.2v0Zm-.46,1.11h.05l-.25,0,.21,0ZM254.08,39h0l-.09.11.08-.1Zm-10.6.65.11.08a1.43,1.43,0,0,0-.24-.16.57.57,0,0,1,.13.08ZM459,48c.21-.27.65-.17.69-.4s.26-.73.66-.7c-.23-.48-1.44-1.26-1.75-1.7s-1.76-.64-1.76-.42c-.7-.55-2.23-.59-2.26-.32s.37.29.59.59-.3.48-.19.82-.57-.17-.81-.36-.13-.94-.06-1.32-.44-.3-.49-.68S451.8,42.3,451.08,42s-1.64-.57-1.9-1-1.53-.42-2-.93a8.6,8.6,0,0,0-3.59-1.48c-.93-.06-.72-.57-1.17-.5a17.91,17.91,0,0,1-3-.11c-.61-.1-.74.36-1.17.19s-2.7-1-3-.69-.15.74-.42.82,0,.46.63,1,.24,1-.33,1.25a1.72,1.72,0,0,1-1.76-.66c-.28-.44-1.06-.25-1.25-.82,1,0,1.5-.29,1.56-.7s-1-.7-1.62-.67-.91.86-1.51,1.2a5.79,5.79,0,0,1-3.21-.36,11.21,11.21,0,0,0-3.87.23c-.34.23-.09,1.12-.26,1.2s-.34-1-.34-1.24-.4-.36-1-.36c-.43-.51-.91-.76-.45-1.08s-.84-1.33-2.09-1.83a10.88,10.88,0,0,0-4.85,0,14.36,14.36,0,0,1-3,.17c-.72,0-.14-.28-.34-.63s-1.45-.76-1.62-.47a3.55,3.55,0,0,0-2.1-.74c.4-.42,1.31-.3.91-.92s-3.81-.8-4.13-.68,0,.55-.76,1.25-1.46.23-1.36-.11,1-.29,1-.63-1.25-.15-1.44-.43.27-.48.72-.35,1.25.21,1.29,0-.47-.24-1.23-.38a17.12,17.12,0,0,0-3.57-.47c-1,.09-1.4-.37-1.93-.4s-.53.28-.28.59-.52.49-1.14.4-1.54.34-1.18.8.72-.14,1,0-.8.48-.35.69.38.65.4.87-.75.35-1,0-.68,0-1.21-.07c.21.36.4.72-.36.8s-.57-.7-1-.61-1.44-.36-2-.34-.78.44-1.48.49a2.62,2.62,0,0,1-1.93-.74c-1.06.38-1.08,1.22-1.42,1.27s-.48.8-.82,1-.36-.28-.8-.24-1.84-1.34-1.91-1.73-.95-1.17-1.18-1.32c.8.27,1.16.27,1.44.12a.5.5,0,0,0-.25-.88c.19-.59-.62-1.33-.32-1.41-.66-.51-1.1-.85-1.12-1.06s-1.78-.29-1.7,0c-.38-.29-1.1-.21-1.94-.44s-.85-.82-1.13-.86-.19.82-.61.63a.48.48,0,0,0-.65.19.48.48,0,0,0,0,.48c.23.49,0,.57,0,1-1.26-.12-1.26.47-2.32.21s-1.53,0-1.72-.33c-.59.19-2.22.08-2.35-.34s.28-.5.53-.61-.27-.28-1.16-.23-1.46-.45-2.37-.36a28.93,28.93,0,0,0-3.22.42c-.29.13.26.65-.17.69s-.14-.84-.21-1.26a3.16,3.16,0,0,1-2,0,3.55,3.55,0,0,0-1.48-.76c-.74-.19-1.65.61-1.44.83s.75.06.77.21c0,.32-1.57.19-1.57.46s-1.5.63-2,.68c-1.25.16-1.52.16-2.1.65s-.14-.44.32-.89.93-.27,1.19-.63.68-.32,1.4-.44.68-.53,1-.68,1.17-.48,1.32-.82a4.79,4.79,0,0,1,2.2-.9c.34,0,.42-.68.61-.68a9.78,9.78,0,0,0,1.55-.61,1,1,0,0,0,.59-.78c0-.25-.51-.21-.57-.44,1-.38.65-.91.32-.81s.18-.29-.11-.63-.85.21-.83-.15a1.51,1.51,0,0,0-.27-1c-.23-.23-.64.4-1.12,0s-1.86-.59-1.86-.44-.66-.23-.8-.07a3.33,3.33,0,0,1-1.57,0c-.34-.09-.82.14-.84.48s-1.36.21-1.61.15.93-1,.93-1.2-2,0-2.1-.15-1.08-.25-1.52-.23c.78-.19,1.14-.53,1.57-.61,0-.76-.49-.63-.93-.76a6.13,6.13,0,0,0-1.34-.34,12.09,12.09,0,0,0-1.69.36c-.89.17-1,.85-1.42,1.06s-1.25,1.05-.87,1.13.19.3.24.55-.28.3-.72.23-2-.06-1.95.26.89.48.83.65-.66,0-1-.19-1-.08-1.12.25-.67.24-.84.17-.55.15-.83.05.57-.51.36-.72-1.12,0-1.21.33-.65-.25-.86-.14a7.18,7.18,0,0,1-.83.42c-.4.17-1.08-.19-1.23.11s.75.4.77.54-2.06.11-2.12.32-.76.21-1.61.23-.51.44-1.2.57-1,.15-1.21.5a.66.66,0,0,1-.91.18l-.08-.05c-.17.21-.49.55-.7.47-.13.29,0,.57-.13.78s-.91-.24-1.1-.05.36.43.7.4a.5.5,0,0,1,.57.42v0c0,.24-.8-.16-1,0,.86.38.59.52.91.8s-.11.38-.07.61c-.36-.11-1.37-.19-1.58.06-.85,0-1.57.26-2.5.3a21.53,21.53,0,0,0-3.31.28c-.48.18-.88.84-.44,1.28s0,.63,0,.91,1.14.88,1.74.93,1.1.8.74,1.26-1.46-.13-2.18-.7a5.61,5.61,0,0,0-2.94-.76c-.55,0-.22-.5-.93-.48s-1.28.65-.81.65c.28.42.66.36,1.23.61s-.47.59-1.06.19a1,1,0,0,0-1.39.28h0c-.17.3.69,1.18,1.71,1.33s.69.48,1.16.65c-.51.4-1.16-.11-1.67-.38s-1.9.12-2.18-.19.19-.61-.08-.84,0-.74.3-1.27a1.21,1.21,0,0,0-.54-1.6c-.5-.15-.46.36-.35.51a1.57,1.57,0,0,1-.32,1.35c-.38.48-1.54.48-1.54.8s-.77.57-.51.8a9.89,9.89,0,0,1,1.46,1.77c.15.36-.93,1.5-.76,2.17s-.15,1,.06,1.29.68,0,1,.17.8-.19,1.5-.32a5.5,5.5,0,0,1,2.46.84c.47.22.23.6.48,1s-.57.38-.59,1,1.42.82,1.48,1-1,0-1.44-.12-.46-.7-.59-.81.28-.58.32-.94-.47-.57-.64-.82-.48-.6-.82-.53a5.88,5.88,0,0,0-2,.53c-.38.35.06,1.32.27,1.79s-1.1,1.14-1.07,1.53-.4.55-1,.85-1.2.53-1.18,1-.76.23-1.16,0-.91.13-1.48.11-.56-.49-1-.32a.44.44,0,0,1-.62-.55,1.2,1.2,0,0,0,1.42.1c.38-.21.19.26.74.3,1.08-.21,1.1-.34,1-.55s.3-.36.57-.48.15-.55.4-.68c.61-.44.72-.84,1-.84s.38-.4.23-.61.09-.78.34-.86c-.19-.64-1-1.22-1-1.58s-.15-1,0-1.31a3.13,3.13,0,0,0,0-1.22,7.82,7.82,0,0,1,.33-1.35c.11-.62-.67-1.29-1-1.46s-.13-.52.42-1,.59-1.89.55-2.19-1.16-.57-1.59-.53a16.76,16.76,0,0,1-2.45-.12c-.4-.07-.53.34-.72.73a8.63,8.63,0,0,0-.85,1.82c-.25.86-1.25,1.12-1.71,1.31s-.74.82-.53,1.13c.93.28.7,1.08.57,1.2s.25.4-.08.61-.62.64-.43.87,1.12.34,1.51.57.25.65.55,1,.63.15.78.4-.55,1.24-.8,1.27-1.25-1-1.55-1.23-1.48-.59-2.07-.9a10.59,10.59,0,0,1-1.71-.7,3.5,3.5,0,0,0-2.37-.62c-1.17,0-1.93-.27-2.33-.21s-.25-.4-1-.7-1.15-.73-1.55-.52-.25,1,.36,1.07.3.42,1,.38.83.19.81.59a1.54,1.54,0,0,0,.59,1.06c.28.27.11.7-.4.7s-1.1.08-.87.44c-1.18.08-.88-.28-.67-.49s-.45-.48-.77-.59-1.62.83-2,1-1.25-.23-2.16,0-.85,1-1.19.87-1.35.1-1.73-.13c.72-.33.85-.46.63-.73s.3-.68.28-.87-1.5.3-1.74.51,0,.59-.25.72a4.43,4.43,0,0,0-3.51.54c-.41.47-1.23.49-1.23.76s-1,.25-1.4.44-.13,1-.28,1.35-1.71.26-2.18.28-.65-.91-1-1-.15-.59,0-.82.42,0,.9-.34.94.15,1.13,0-.72-.77-.77-1.24-1.06-.61-1.63-.46a2.45,2.45,0,0,1-1.6-.17c.82.65.52,1.1.61,1.39a2.25,2.25,0,0,1-.49,1.43c-.34.49-.1.47.41.45s.48.65.48,1.14-.4.63-.4,1c-.68.13-.85-.1-.93-.4s-.85-.14-1.29-.25-.61.07-.81.4a1.75,1.75,0,0,1-1.14.5c-.36,0-.89.66-1.23.89s-.4.67.07,1.12.57.76.53,1-1.32.17-1.53-.09a1.9,1.9,0,0,0-1.33-.3c-.29,0-1.06-.86-1.46-.88s-.65.48-.78.72.19.33.38.75.89.43,1.25.43.23.56.12.78-.78.4-1,.16-1,0-1-.3a1.07,1.07,0,0,0-1.18-.67c-.59.09-.7-.29-.66-.74s-.33-.72-.3-.93-.27-.63,0-.84.08-.53.1-.82-.51-.72-1-.72-.38-.48-.77-.57a2.5,2.5,0,0,1-1.26-1,11.49,11.49,0,0,0,2.36.72c.89.12,1.25.54,2.23.7s1.58.29,3,.5,3.32-1.24,3.72-1.64-.12-1.21-.12-1.52-.64-.34-.74-.57a1.23,1.23,0,0,0-1.06-.65c-.55,0-.62-.63-1.06-.59s-.74-.19-1.88-.95a6.28,6.28,0,0,0-3-1.18c-.85-.36-1.29-.32-1.59-.09s-.61-.21-1.17-.08-.88-.25-.72-.42,1,0,.94-.3-.34,0-.85-.34-.8-.12-.91.17a3.11,3.11,0,0,1-.86-.1c-.31-.19-.89-.22-1,0-.55-.34-1.36-.57-1.4-.7.95.23,1.16.12,1.5-.21s.82-.06.87-.34-.55-.48-.66-.65a1.09,1.09,0,0,0-1-.32c-.42.08-.44-.09-.68-.32s-1,.15-1,.68c-.14-.17-.53-.51-.15-.61s.17-.66-.54-.72-1,.53-.8.72-.47,1-.75,1,0-.7,0-1.08-.28-.17-.81.43-.93,1.16-1.23,1.22-.27-.55.23-.82.51-1,.83-1c-.63-.6-.7-.07-.85.08s-.93-.27-.91-.11c0,.78-.33,1-.52.68s-.66-.07-.89.3-.53.36-.3.5a.42.42,0,0,1,0,.62.3.3,0,0,1-.17.12c-.34.1-.21-.93-.47-.83.62-.5,1-1,.95-1.16a2,2,0,0,1-1.5.32c-.48,0-.46.55.07.86a3.64,3.64,0,0,0-1.33.28c-.28.14.69.48.73.65-.73.06-1.26-.17-1.29-.5a7.9,7.9,0,0,1-.12,1.09.71.71,0,0,0-.91-.46.7.7,0,0,0-.24.13c-.38.23.05-.42-.1-.74s-.5,0-.9.08c-.11.63-.15,1-.47,1-.38.61-.83.63-.87.36s-.68-.19-.87.11-.73.54-.67.88.48-.17.82-.06c.36.63.32,1,.05.8-.72.48-1,0-1.23-.26s-.45.53-.7.34.49-.78.3-1.07-.32.17-.76.61-1,.42-.81.63-.44.32-.55.68-1,.5-1.57.88c.75-.32.87-.11,1.38-.44s1.06-.59,1.25-.45c1-.46,1.31-.38,1.56-.17s-.42.38-.12.68c-.36-.06-.74-.29-.87,0a.91.91,0,0,1-.61.53c-.24,0-.51.48-.51.94a11.32,11.32,0,0,1-1.65,2c-.53.52,0,.63-.21.95s-.8,0-1,.18.12.93-.17,1.18,0,.59,0,.87-.74-.17-.8.11-.7.21-.89.29.38.53.72.8c-.47-.13-.95.36-1.53.63s-.35.8-.8.82-.33.74-.63,1-.23-.53-.7-.55-.44.33-.15.73-.44.1-.7.43-1,.17-1.23.46.57.29.68.51-.68.12-1.1,0-.3.54-.68.46-.86.32-.59.59a.92.92,0,0,0-1.06.7c-.1.32.51.5.49.65.19.55-.06.85-.28.95s-.23.32,0,.61-.4.34-.1.78a1.05,1.05,0,0,0,1.48,0l.09-.11c-.11.38-.51.59-.43.93-.5-.55-1.22-.06-.95.25s-.1.47-.1.76c.93-.42,1.27-.35,1.4,0s-.32.07-.32.51-.28.06-.53.4,1,1,1.35,1.06.74.52,1.5.4a6.7,6.7,0,0,0,2.39-1.76c.19-.25.6,0,.89-.19s.11-.82.32-.94.32.63.51.7.3.2.3.59a1.65,1.65,0,0,0,.57,1.41c.42.34.1.86.46,1.33s.24.82.64,1.16.44.54.27,1,.34.33.36.59-.12.82,0,1.09.4,0,1,0,.46-.4.47-.76a1.17,1.17,0,0,1,1.46-.52c.44.19.67-.13.74-.59.59.29,1-.51,1.18-1-.89.57-.65-.42-.47-.82a12.34,12.34,0,0,0,.2-1.83.89.89,0,0,1,.73-.78c.54-.11,1.27-.8,1.15-1.08s.76-.76.76-1.05-.91-1.16-1.21-1.35-1,0-.91-.25a7,7,0,0,0-.15-1.44c-.08-.42.47-.86.47-1.26s0-.85.34-1,.13-.47.61-.59.38-.8.89-1,.55-.39,1.21-.7a5.78,5.78,0,0,0,2-1.49c.19-.4-.68-.82-.13-1.24s.1-.89.5-1a2.09,2.09,0,0,0,.83-.67c.28-.3.66,0,1.35-.13a4.48,4.48,0,0,1,1.72.45c.51.23.44.59.46,1-.5.29-.78.46-.93,1a2.05,2.05,0,0,1-1.31,1.29c-.44,0-.4.5-.76.59s-.7.3-.68.7-.53.44-.89.44-.29.65-.57.82-.23.4,0,.74,0,.65.13.9a1.71,1.71,0,0,1,.23,1.44c-.29.63-.59,1.41-.35,1.33s.82.52,1.2.48.42.53.78.42.36.34,1.4.3,3.15-.91,4-.91a4.89,4.89,0,0,0,1.15-.13,5.18,5.18,0,0,1,.62-.78,5.18,5.18,0,0,0-.62.78c.84-.35,1,.4,1.36.64s.91,0,1.11.25a5.17,5.17,0,0,0-1.83.59c-.51.17-.46.35-.64.5-.83.28-2-.25-2.7-.12s-2.07.14-2.39.48-1.14.44-.78.74,0,.46.27.82.4.51.76.44.64.11.26.51-.11.7-.13,1.29-.68.5-1,.5-1-1.08-1.14-1.33-.8.3-1.24.57-.2.78-.51,1a.89.89,0,0,0-.19,1.21,1.3,1.3,0,0,1-.09,1.47,1.64,1.64,0,0,0,.26.55c.17.3-.68.34-.41.7-.61-.38-1.52-.19-1.48.06-.19.49-.43.66-.78.66-.55,0-.59-.55-.61-.8s-2.22.21-2.8.8-2,.36-2,.69a3.51,3.51,0,0,0-1.24-.29c-.49,0,.3-.49.12-.74s-.69.46-1.14.3-1,.53-1.44.84-1-.06-.66-.5c-.91-.06-1.47-.26-1.4-.68-.25-.57-.62-.79-.59-1,.93.36,1.51.4,1.57.11s-.09-1-.45-.8c-.72-.26-.33-.57-.23-.87s.72-.19.81-.44-.41-.51-.6-.61a.7.7,0,0,1,0-.89,1.07,1.07,0,0,0,.13-1.1c-.19-.19-.87,0-.93.51s-.6.29-.76.4.3.34.06.57-.34-.34-.74-.38-.44.61-.64.93a2.46,2.46,0,0,0,0,1.47c.07.45.62.74.49,1.12-.06.18.06.38.2.57s.31.44.22.61.1.63.34,1.1-.53.21-.55.51-.72,0-.95-.13-1,0-1,.15a10.57,10.57,0,0,1-1.65.44c-.57.11-.74.67-.53.89-.67-.26-1.24,0-1.2.35s-.63.55-.59,1-.6,1-1,1.2a3.66,3.66,0,0,1-1.06.49c-.74,0-1.14.37-1.06,1.13s-.55.84-1.33.89-.51.67-.84.92a1.56,1.56,0,0,1-1.61-.55c-.15-.42-1.17,0-.74.49s.42,1.18.17,1.37-.77-.3-1.11-.06-.37-.23-.78-.38-.59.19-1.25.14-1,.32-.8.61,0,.55.15.8,1.06.2,1.7.55.8,0,1.12.3.4.1.42.57a1.25,1.25,0,0,0,1,1.1c.62.17.15.59.34,1s-.29,1-.19,1.54a4.1,4.1,0,0,1-.61,2.32c-.46.09-1.57-.31-2.29-.23s-3.27-.11-4.23,0-1-.4-1.56-.4-.3.64-1.06.66-.83.5-.28.94c.31.25.27.77.23,1.25a1.75,1.75,0,0,0,0,.88,5.1,5.1,0,0,1-.8,3.08c-.49.57,0,.72.5,1.12s.17,1.85.17,2.19.45.25,1,.25a7.21,7.21,0,0,0,1-.2c1.21.3,1.52,1.62,2.23,1.53a1,1,0,0,1,1.05-.46c.3,0,.45-.43,1.17-.45s1.18-.08,1.63-.06.82-.13.93-.46a1.21,1.21,0,0,1,1-.68c.51-.08.43-.61.47-.91s.89-.77,1-1-.5-1.1,0-1.89S218,92,218,91.52s.53-.56,1.17-.63.86-.52,1.4-.74a.87.87,0,0,0,.54-1.08,1.14,1.14,0,0,1,.57-1.51,1.17,1.17,0,0,1,.41-.1,5.31,5.31,0,0,1,2.35.52c.36.23.85.17,1.48-.5a1.64,1.64,0,0,1,.8-.52c1-.39.84-.75,1.51-.94a1.94,1.94,0,0,1,1.8.76c.26.4.34.44.4.76a2.47,2.47,0,0,0,1.21,1.56c.91.59,1.27,1.26,1.75,1.5s.94.19,1.23.53a2.82,2.82,0,0,0,1.12.74c.45.21.47.7.91.77s.15.43.41.76a1.26,1.26,0,0,1,.06,1.39c-.28.38-.13,1,.06,1s.58-.68.64-1.06.44-.36.74-.76-.45-.5-.59-1,.57-1,1.23-.55.93.7,1,0-2.05-1.5-2.54-1.8-.17-.8-.95-.77-1.7-.93-2-2-1.5-1.18-1.8-1.85.29-.74,0-1.29c-.15-.31.18-.58.57-.73a1.28,1.28,0,0,1,.82-.1c.26.64.24.93.45.93s1,0,1,.42A5,5,0,0,0,236.9,87c.3.34,1,.26,1,.55s.53.55,1.1.59a5.2,5.2,0,0,1,1.2.71,6.64,6.64,0,0,0,.9.68c.57.3.77.49.42.84a1.75,1.75,0,0,0,0,1.9c.38.3.49.92.86,1.09a1.11,1.11,0,0,1,.74,1.13c-.06.48.6.65.91.3s1.15.19,1.15.42-.87-.25-1.36.11.38.7.26,1.09a.74.74,0,0,0,.56.88h.11c.43,0,.92.7,1.19.57s-.32-1.14-.23-1.29.63.27.89,0-.19-.53-.58-.51a2.48,2.48,0,0,0,1.38-.36c.23,0,.29-.86-.42-1s-.6.51-1.06,0,.42-.29.42-.69-.7-1-1.05-1.45.48-.7.67-.36.7.29,1,.16-.34-.75.25-1,.59.18.78.25.36-.47,1-.47a1.51,1.51,0,0,1,.87.41,1.37,1.37,0,0,0,.74.37c.54,0,.74-.57,1.2-.75s1.48.06,1.73-.17-.65-.51-1-.78a1.27,1.27,0,0,1-.32-.67c-.38-.34-.7-1.21-.44-1.27s.61-1,1-1.1a1.35,1.35,0,0,0,.27-1c0-.4.25-1,.65-1s.72,0,.66-.7.07-.62.61-1,.6-1.2,1.1-1.3A2.85,2.85,0,0,1,257.5,82c.72.12-.36.57.13.84s2-.08,2.08.3-1.74.76-1.7,1,1,.38,1.29.59-.1.8.05,1,.65,0,1-.25.72-.19,1.23-.53,1.57,0,1.71-.25-.3-.42-1.29-.34a1,1,0,0,1-1.05-.85v-.2a2.89,2.89,0,0,1,1.62-1,5,5,0,0,0,1.63-.5,5.16,5.16,0,0,1,1-.29c.61-.12,1.24-.17,1.31,0s-1.33.84-1.59.93.51.49.49.72-.84.29-.76.74-.27.56-.7.56c-.13.34-.15.91.66,1.12a5.66,5.66,0,0,1,2.39,1.73c1.08.7,2.17.58,2.32,1.37s.68.55.49,1.33a3.44,3.44,0,0,1-2.67,1.24,8.84,8.84,0,0,0-2.24.06c-.74,0-.95-.54-1.52-.5s-.57-.51-1.14-.51-.13-.29-1.91-.52a5.34,5.34,0,0,0-3.89,1.2c-.57.5-2.61,0-2.8.15s0,.73-.65,1-2.18,0-2.69.23-.7,1-.27,1c.4.55.89,1.09.65,1.32a.59.59,0,0,0,0,.83l.07.06c.3.23.36.65,0,.7s.62.47.64.66.83.29.83.52a1.52,1.52,0,0,1,1.44,1c.25.38,1.65.11,1.65-.3s.42-.54,1.05-.48,1.44.91,1.74,1,.93-.23,1.33-.23,1-.63,1.2-.76.62.43,1,.24.76-.4,1-.26-.55.72-.34,1c0,.67-.12.91,0,1.08s0,.55-.1,1a8.17,8.17,0,0,1-1,2.1,2.49,2.49,0,0,0-.2.6,7.7,7.7,0,0,1-1,2.29c-.3.36-.92,0-1.51.13a2.18,2.18,0,0,1-1.61-.34,3.61,3.61,0,0,0-2.67.43c-.25.36-.88.36-1.45.14a7.37,7.37,0,0,0-2.35-.67,3.82,3.82,0,0,1-1.93-.46c-.13-.32-.65-.34-1.76-.51s-.7-.93-2-1-2.84.93-2.86,1.47.59,1.12.17,1.67a1.34,1.34,0,0,1-1.9.09l-.07-.07a3.66,3.66,0,0,0-2.37-.86c-.78,0-1.33-.5-1.27-.91s-.19-.61-.84-.74-1.2-.67-2.33-.48a2,2,0,0,1-1.48-.31c-.3-.2-.49-.43-.49-.54s-.34-.67-.53-.44-.91,0-1-.44.48-.46,1-.89a1.12,1.12,0,0,0,.19-1.57.75.75,0,0,0-.15-.16c-.57-.46-.17-.7.22-1.13-.38-.26-.72-.21-.77-.66s-1.29-.53-1.77-.1a3.82,3.82,0,0,1-1.9,0,8.31,8.31,0,0,0-1.31.13c-.41,0-1.44.69-1.78.37s-3.83.24-4.81.28-1.4,1.07-2,1.07a3.28,3.28,0,0,0-2,1,4.73,4.73,0,0,1-2-.13c-.66,0-1.69.32-2.18-.23s-.83-.72-1.2-.55-1,2.07-1.4,2.62a2.9,2.9,0,0,1-1.95.94c-.51,0-.57.78-1,1.1s-.24.84-.72,1.22-.24,1.54,0,2-.87,1.73-1.51,2.11-.86,1.1-1.88,1.27a1.75,1.75,0,0,0-.93.46,3,3,0,0,0-.7,1.18c-.23.6-1.65,1.5-1.71,2.36s-1.38,2.18-2.25,4a3.49,3.49,0,0,0-.38,1.21c-.07.83.43,1.12.72,1.46s-.3,1.25.28,2.07-.13,2.07-.41,2.53a2.83,2.83,0,0,0-.22,1.12,2.36,2.36,0,0,1-.3,1c-.41.63.17,1.54.48,1.82a2.9,2.9,0,0,1-.09,1,.72.72,0,0,0,.14.6c.46.56.5.77,1.16.95s-.05.59.55,1,.55.86,1.06,1.24a4.31,4.31,0,0,1,1.45,1.58c.49,1.52.77,1.73,1.21,2.09a11.37,11.37,0,0,0,1,.69c.54.34,1.16.74,1.67,1.12a17,17,0,0,0,3,1.88c1.09.07,2.47-.5,4.1-.78a5.52,5.52,0,0,1,2.49.15,10,10,0,0,1,1,.35,11.63,11.63,0,0,0,2.48-1c.52-.26,1.09-.42,1.49-.63a2.2,2.2,0,0,1,1-.45,4.89,4.89,0,0,1,.85-.08c.41,0,.66-.54.88-.28s1.32.38,1.93.51a1.89,1.89,0,0,1,1.21,1.31,1.65,1.65,0,0,0,.69,1.1c.28.15,1-.28,1.3-.28a4.69,4.69,0,0,0,1.71-.19c.37.09.55.43.74.7s.78.09,1,.21a1.91,1.91,0,0,1,.36,1.25c-.08.24-.39.84-.25,1.14a.56.56,0,0,1-.12.79.51.51,0,0,1-.16.09c.14.52.09.69,0,.85-.39.44.18.67.27.92s-.72.17-.7.53a1.08,1.08,0,0,1-.51.82c-.23.17.61.89.63,1.14s.2.47.93,1.18.36.84,1.26,1.58a4.09,4.09,0,0,1,1.24,1.47,5.87,5.87,0,0,1,.45,1.42,19.76,19.76,0,0,0,1.16,2.81c.17.37-.21.69-.21,1.35s.72,1.89.8,2.7a2.47,2.47,0,0,1-.91,1.87,4.83,4.83,0,0,0-.93,2.47c0,.74-.68,1.47-.66,1.81a11.14,11.14,0,0,1-.17,1.73,3.15,3.15,0,0,0,.72,1.73,9.62,9.62,0,0,1,1.25,2.63c.29.93,1.1,2,1.31,2.68s-.15,1.71.06,2.17a8.69,8.69,0,0,1,.45,2c.12.78.17,2.43.88,3.12a6.1,6.1,0,0,1,.8,1,8.78,8.78,0,0,1,1,2.06c.3,1,1,2,1.24,2.55s.4,1.14,0,1.2-.4.4,0,1,.06,1,.42,1.1a2.51,2.51,0,0,1,1.22.88.52.52,0,0,0,.74,0,.48.48,0,0,0,.09-.11c.21-.3.85-.4,1.52-.4s.53-.28,1.17-.47a3.39,3.39,0,0,1,2,0,1.36,1.36,0,0,0,1.24-.16c.26-.17.78.27.81-.17s.57-.36,1.07-.36a6.2,6.2,0,0,0,2.63-1.67,24.39,24.39,0,0,0,3.05-3.75,10,10,0,0,1,1.84-2.05,4.55,4.55,0,0,0,.6-2.12c0-.26.05-.49.06-.64,0-.61-.38-.12-.51-.5s.93-1.08,2-1.48,1.5-.63,1.61-1,0-1.45.14-1.87-.1-.66-.23-1.61-.48-1.1-.63-1.64-.11-.95.21-1,.32-.17.59-.68.57-.3,1.08-.69.53-.86,1.35-1.48,1.7-.61,2.5-1.09,2.16-2.34,2-2.68a9.24,9.24,0,0,1-.32-2.51c.08-.63-.11-2.28-.11-3.08s-.87-.46-.91-1.22-.49-.78-.47-1.31.05-1-.14-1.07-.07-.51.23-1-.55-.51-.68-1.08a6.38,6.38,0,0,1,.56-2,28.15,28.15,0,0,1,1.26-2.8c.28-.44.57-.36.81-.67s.33.16.7-.45c.61-.83,2-2.13,3-3.18a6.83,6.83,0,0,1,2.24-1.71,15,15,0,0,0,3.18-3.14,7.11,7.11,0,0,0,1.48-2.38,5.59,5.59,0,0,1,1.16-2,7.09,7.09,0,0,0,1.19-2.55c0-.46.38-1.43.44-2.24s-.62-.9-.83-.44-1.84.76-2.89.78a3.06,3.06,0,0,0-2,.47c-.38.37-1.33-.09-1.67.31s-1.69.74-2.13-.17a1.54,1.54,0,0,0-.65-.73c-.32-.19-.61-.22-.69-.3s.38-.51.74-.59.19-.49-.12-.76a14.41,14.41,0,0,1-1.53-1.69,3.34,3.34,0,0,0-2-1.41c-.46,0-.53-.78-.82-.82s-.92-1.16-.94-1.88a2.87,2.87,0,0,0-.72-1.43,2.82,2.82,0,0,0-.8-.74c-.48-.17-.78-1-.78-2a11.85,11.85,0,0,0-.29-2.14,2.4,2.4,0,0,0-1.12-1.33,1.35,1.35,0,0,1-.71-1c.09-1.13-.33-1.09-.59-2s-1.33-2.13-1.37-2.62-.63-.78-.61-1.32-.28-.59-.87-1.43a3.38,3.38,0,0,1-.59-2.35c.17-.06.67,1.23.86,1.65s.83,1.69,1.29,1.69.62-1.92.77-1.82c.12.32,0,1.43.25,1.52s.44.61,1,1.28a10.36,10.36,0,0,1,1.86,2.89,1.81,1.81,0,0,0,1,1.42c.76.52.76,1.15,1.15,1.45s.3.67.33,1.43a2.71,2.71,0,0,0,1,2.17,3.26,3.26,0,0,1,1.48,1.69,6,6,0,0,0,1.17,2c.44.44.19.67.44,1a3.44,3.44,0,0,1,.42.75,1.2,1.2,0,0,1,.11.79,2.89,2.89,0,0,0,.38,2c.4.59.25,1.68.44,1.89a3.1,3.1,0,0,0,2.33-.27,2.65,2.65,0,0,1,1.65-.51,2.28,2.28,0,0,0,1.4-.69c.17-.23.95-.24,1.27-.21s.64-.32,1-.68a10.38,10.38,0,0,1,2.71-.89c1.22-.39.95-1,1.23-1.3s.58-.2,1.1-.41a6.34,6.34,0,0,1,2.42-.52c.55-.15,0-.61.49-1s1.16-.09,1.4-.23.42-1,.83-1.18.88,0,.82-.42,0-1.65.43-1.73,1-.49,1.05-.72a15.61,15.61,0,0,1,1.06-1.5c.25-.42.27-.65-.09-.7s-.93-1.07-1.08-1.35-1.26-.1-2.15-.8a2.46,2.46,0,0,1-.69-1.37c-.19-.79-.21-1.59-.35-1.6s-1.16,1-1.54,1.73a2.43,2.43,0,0,1-2.42,1.15,1.6,1.6,0,0,0-1.52.4,1.43,1.43,0,0,1-.8-.9c.27-.78.42-1.86-.13-2s-.85,1-.85,1.26c-.34-.16-1-1.11-.78-1.37s-.15-1-.57-1.39-1.27-1.08-1.31-1.52a2.16,2.16,0,0,0-.16-.55,13.14,13.14,0,0,1-.61-1.62,1.2,1.2,0,0,1,.67-.52c.65,0,.64-.43.9-.2s.63,0,.89,0,1,1.35,1.31,2,.3.89.74,1.18.93.13,1.56.78a5.62,5.62,0,0,0,2.92,1.12c.68,0,1.19-.74,2.06-.57s.67,1.29,1,1.69,3.87.67,4.47.84a6.83,6.83,0,0,0,1.35.11,7.68,7.68,0,0,0,2.39-.17.85.85,0,0,1,1-.15,3.06,3.06,0,0,0,2.07,0c.62-.35,1,0,1,.3s.3.44.58.7.08.57.27.88.57.24,1.12.49c.59.43.75,1,1.38,1.22s1.4-.48,1.4.07-1.74.44-1.78.61,1.8,2.4,2.73,2.23,1.61-1.18,1.35-1.33.15-.78.4-.67,0,1.1.32,1.33.19.65,0,1.18.19,1.58.24,2.17.46,1.45.59,2.32a13.58,13.58,0,0,0,1.2,3.45c.51,1,.91,2.87,1.25,3.32a6.3,6.3,0,0,1,1.21,2.7,4,4,0,0,0,1.25,2.29c.33.23,1-.27,1.2-.8s1.14-.74,1.2-1.2.15-.82.49-.88.34-.42.34-.91a2.86,2.86,0,0,1,.38-1.64,2.76,2.76,0,0,0,.19-2.09,2.27,2.27,0,0,1,.1-1.62c.19-.47.11-1,.47-1.06a2.12,2.12,0,0,0,1.27-.88,13.89,13.89,0,0,1,1.95-1.56,12.4,12.4,0,0,0,2.07-2.09c.38-.63,1.46-.84,1.95-1.35s.3-.78.4-1.33,1.69-.78,2.3-.78.84-.27,1.17-.27,1-.06,1-.5.51-.76.78-.62a3.11,3.11,0,0,1,.68,1.75,1.64,1.64,0,0,0,.2.65,2.69,2.69,0,0,0,1.2,1.27c.74.3,1.23,1.81,1.46,2.61a2.86,2.86,0,0,1-.19,2.07c-.27.46.09.48.53.7s.93.3,1.25-.15,1-.78,1.08-1.29.4.24.67.51a2.4,2.4,0,0,1,.51,1.43c.05.64.11,2.26.66,2.77a2.32,2.32,0,0,1,.49,2c-.15.4.29,1.08.17,1.52-.18.9-.31,1.77-.43,2.25s-.27,1.1.07,1.14,1,.82,1.69,1.65a2.81,2.81,0,0,1,.39.64,4.94,4.94,0,0,1,.35,2c0,.76,1.14,2,1.31,2.47s.49.65,1.23,1.18,2.18,1.39,2.47,1.26-.44-1.39-.86-1.83,0-1.62,0-2.47-.8-.76-1-1.35-.51-.25-.63-.63a2.37,2.37,0,0,0-1.57-1c-.64-.05-.95-1-.89-1.46s-.47-.82-.47-1.2-.38-.4-.82-.61.09-1.5.15-2.05,1-2.13.7-2.63.93-.87,1.08-.32.21.81,1,.78.76.55,1.36.72.39.86.44,1.2.53.15.8.13-.17.42.06.69.89-.23,1,.09a1.78,1.78,0,0,0,.68.63c.3.19-.37.52-.36,1.12s.48.77.65.52a3.66,3.66,0,0,1,1.16-.9c.28-.09,0-.51.3-.49s.2-.44.34-.69.34-.15.8-.13a3.92,3.92,0,0,0,1.74-.84c.64-.41.76-.51,1-1.71a8.35,8.35,0,0,0-.3-3c0-.37-.89-2-1.21-2s-1.8-1.5-2.07-1.75-.19-.67-.57-1a2.12,2.12,0,0,1-.33-1.74c.09-.59.93-.73.91-1.13s.07-.74.49-.76a1.38,1.38,0,0,0,1-.66c.36-.22.8,0,.9-.3.87.32,1.06.38,1.44,0s.57.35.34.54-.08.78.28,1.12.42-.21.34-.55.61-.69,1.8-1.09A6.19,6.19,0,0,0,361,118c0-.19.86.34,1.25,0a6,6,0,0,1,2.22-.36c.38,0,.36-.35.76-.67s.3-.48.76-.61a1,1,0,0,0,.74-.78c0-.23.85-.3.87-.55s.65-.33.65-.63.38-.25.55-.48-.14-.89.17-1-.12-.46-.17-.63.57-.21.89-.42a1.34,1.34,0,0,0,.59-.89c.05-.37.58-.69.83-.79s.34-.6.27-1a1.2,1.2,0,0,1,.75-1.28c-.77,0-1-.7-1.27-.42,0-.36.61-.83.9-.93s-.42-.72-.78-.7-.76-.83-1.14-.83c1.16.19,1.67.38,1.86.19s-.74-1-1.08-1.22,0-.63-.23-.78a5.52,5.52,0,0,1-.81-1.56c-.16-.44-.95-.52-1.14-.8s0-.95.6-1.2.35-.74.61-.69.49-.06.7-.5.57-.17.78-.4,1.14-.21,1.46-.43-.3-.94-.74-.82a1.16,1.16,0,0,1-1.25-.52c-.3-.45-1.1.84-1.71,1.13s-1-.52-.8-1-.47-.5-1.33-.46-.53-1.52,0-1.6,1.27.48,1.59-.47.78-.21,1.5-1,1.55-1.35,2.18-.86-.66,1.28-.87,1.75.18.63-.19,1,.15.46.89,0a16.17,16.17,0,0,1,2.37-1.33,2.46,2.46,0,0,1,2.08.65c.36.45-.41,1-.76,1.39s.21.43.23.78.48.62.65.32.45-.19,1-.19c.45.42.42.83.7.86a.27.27,0,0,1,.28.28.28.28,0,0,1-.28.28h-.07c-.44-.1-.44.59-.06,1.18s-.72,1.25-.42,1.56.06.66.19.85a3.11,3.11,0,0,0,2.45-.8c.7-.72.89-.62,1.25-.53s.72-.26.53-.55a3.33,3.33,0,0,1-.34-1.86c0-.51-.66-1.43-1.33-2.17a8.18,8.18,0,0,0-1.13-1.07c-.44-.26-.18-1,.36-1.14a15,15,0,0,0,2.23-1.37c.4-.23.14-1,.46-1.56a6.73,6.73,0,0,1,1.43-1.39,3.93,3.93,0,0,1,1.38-.82c.47,0,.94.82,1.48.84A7.87,7.87,0,0,0,389.49,87a15.88,15.88,0,0,1,2.09-2.32,10.81,10.81,0,0,0,1.88-2.53,19,19,0,0,1,1.37-1.83,7.37,7.37,0,0,0,.8-1.32c.41-.89.41-3.23.55-3.38s.05-.55.24-.8.1-.59.48-.92a.64.64,0,0,0,.2-.85c-.1-.25,0-.8-.07-1,.38-.52,0-.86-.32-1s-.74-.29-.78-.65a1.07,1.07,0,0,0-1-.76c-.41,0-1.19-.23-1.1,0a3.26,3.26,0,0,0-.8.93c-.32-.3-.85-.32-.77-.7-.48-.26-.48.33-.84.4s-.24-1-.15-1.31-.66,0-1.46,0-.59-.61.06-.95.53-.67.85-.8,1.16-.69,1.65-1a1.43,1.43,0,0,0,.7-.93c.11-.33,1-.73,1.84-1.39a5,5,0,0,0,1.4-1.45c.19-.4,1.4-.89,1.42-1.2s1.44-1.06,2.41-1.25a4.63,4.63,0,0,1,2.79.34,4,4,0,0,1,1.85,0c.65.08.8-.3,1.24-.17s.8.21,1.06-.3,1.52-.42,1.8-.21.51.49,1,.19.45.4.89.46c-.61.36-1.09.59-.65.83s.95-.22,1.29-.19a1.94,1.94,0,0,0,1.35-.23c.47-.3.6.25.91,0a2.22,2.22,0,0,1,1.33-.33c-1.09-.4-1.07-.7-.61-1.48a7.36,7.36,0,0,1,1.88-1.68c.54-.47.94-.24.94-.55s.27-1.16.69-1.18a4.55,4.55,0,0,0,2.1-.19c.65-.36.59.27.85.37s.63-.56.93-.37-.45.65-.62,1.2.4.35.72.5-.42.38-.34.54.72.15,1.55-.69a2.74,2.74,0,0,1,2.13-1c.53.06.22-.47.26-1.25s1.67-1,2.2-.78a1.33,1.33,0,0,0-1,1.27c0,.65-.45.86-.2,1.1s-.37.3-.38.57,0,.48-.38.59-1.65.25-1.69.74-.72.56-1.05,1.16-1.55,1-2.36,2.19-2.11,1.22-2.11,1.45-.89.21-1.19.24.28.79-.44,1.57a4.36,4.36,0,0,0-1.18,2.94,20.66,20.66,0,0,0,.7,4.76c.33.55.14,1.9.4,2.19s.17.76.35.93.87-.76,1.34-1.16.32-.53.65-.74.19-1.09.28-1.32.68-.34.87-.58.69-.1.95-.19,0-.73-.11-1.09.78-.86,1.23-1.18,1,.21,1.54-.26,0-1-.23-1.28.51-1.45.91-1.56.61.29,1-.06-.35-.89-.61-.85-.36-1,.26-1.45.38-.57,0-.68-.5,0-.82.05-.64-.66-.15-1.33,1-.59,1.08-1.14a6.51,6.51,0,0,1,1-1.62c.17-.28.85,0,1.12,0,.81-.06,1.34-1,1.78-1s.15.7.26,1.12.36-.11,1.2-.69a4.38,4.38,0,0,1,3.2-.24c.55.26.65.89.95.82.46-.12.08-.63.53-.77a7.71,7.71,0,0,0,1.86-1c.61-.44.44-.12.76-.52s.64-.22.74-.49a3.89,3.89,0,0,1,2.16-1c1.2-.27,2.75-1.07,2.67-1.31.57.13,1,0,1.65.17s.91.38,1.4-.12,0-.66,0-1-.85-.78-.74-1.18-.64-1.47-.87-1.26-.76-.17-.76-.48c-.76-.21-1.36-.32-1.48-.66s.7-.59,1.28-.36.4.45.68.62a2,2,0,0,0,1.46-.1c.4-.19,1.51-.55,1.7-.87s0-.48.37-.67.09-.59-.23-.76a.32.32,0,0,1,.09-.62c.7-.44.74-.25,1.16-.46s0,.32-.17.68.4.67.45.88.88.28,1.33,0a2.3,2.3,0,0,1,2,.66,1.63,1.63,0,0,0,.91,1.1c.61.3,1.16.17,1.27.46a.54.54,0,0,0,.68.36c1-.15,1.16.21,1.48-.08s-.7-.47-.57-.7c.91.14.55-.41.76-.47s0-1.2-.19-1.28A8.22,8.22,0,0,0,459,48ZM398.13,79.89c.3.61-.5,3.3-.23,3.62.45.53.15-.73.83-.84s.69.76,1.1,1,.15-1.22-.22-1.14-.69-.91-.88-1.52.38-1.33.38-2.09.95-.73,1.52-.16.65.19.42-.23-.95-3.46-1.37-4.56.61-2.17-.15-2.74-.45-1.75-.83-1.52,0,1.25-.61,1.33,0,.65-.27,1.41a4.33,4.33,0,0,0,.42,2.55C398.55,75.63,397.83,79.28,398.13,79.89ZM289.71,10.37c-.76,0-1.16.43-.76.76a3.24,3.24,0,0,0,2.8-.23c.35-.45,1.22-.07,1.37-.53s-2.58-.64-2.46-.34-.19.34-1,.34Zm120,15.15c0-.38-1.59-.95-2.08-.65s-.88-.5-1.48-.3-1.44.15-1.75-.38-1.33.84-.87.87c.91.08,1.36,1,3.11,1.07s3-.23,3.07-.61Zm-16.65.42c.3.3,1.44-.16,1.9-.3s.5.68,1.22.22,1.44-.22,2.27-.22-.15-1-.11-1.49,1-.15.68.23.46,1.26,1.67,1.18.3-.84.91-1.1.53-.57-.34-1.1-2-.19-2.77-.53-1.78-.38-1.82.45-1.63-.91-2.47-1.18-3.41,2.38-2.16,3a3.42,3.42,0,0,1,1,.83ZM284.17,10.72c.34.11,1.59.41,1.59-.19s-2,.06-1.59.18Zm-3,28.8c.49-.08-.3-.61-1.14-.84s-2,.61-1.25,1.33c1,1,1.9-.41,2.4-.49Zm65.34-22.6c1.14,0,4.32-.88,4.44-1.49s-1.18-.57-1.67-1.1-1.59-.07-1.86.38-.57,0,.15-.68-.72-1.3-.76-.84-1.36.08-1.36.49-.49.61-.46,1-.91-.23-.95.72-1.47,1.51-.91,1.83,2.25-.38,3.38-.34Zm-54.8-9.44c.61.07,1.4,0,1.1-.34s-2.5-.23-2.28.07-1.78.19-1.74.3.76.46,1.67.46.65-.57,1.26-.49ZM279,9.19c.15-.38-1.63-.49-2.28-.15s-2.15.07-2,.49a1.47,1.47,0,0,0,2.08.09h0c.88-.8,2,0,2.16-.42Zm12.1-.49c.11-.8-1.21-.16-2.2-.58s-1.57-.38-.91.19c.3.27-1.69.48-1.37.8.73.73,4.37.39,4.48-.41ZM395.74,28c.45.15,1.21.07,1.21-.5s-2.06.22-1.21.5ZM286.6,29.24c.07.57-1.18.19-1.14.57s-.19.65-.91.65.34.46.41.87-.72.12-.75.77-1.4,0-1.6.83.69.73,1.29.76-.22.61.23,1,.8.22.49-.42,1.6.23,1,.72.91.88,1.63.91,3.28.6,3.33,0c0-.38-.94-.72-1.74-1.56s-1.36-2.2-.45-2.77.11-.84,1-1.49.38-1.25,1.14-1.33-.08-.76.68-.88a1,1,0,0,0,.81-1.19.13.13,0,0,0,0-.06c-.11-.3.8,0,1.21-.42s1.4-.15,1.71-.8,4.66-2.13,7.13-2.7,4.17-1.6,3.3-2.28-3.34.26-4,.76-1.47.15-2.08.49a3,3,0,0,1-2.54.23c-.65-.41-1.4.5-1.9.46s-1.06.49-1.59.46-1.6.41-1.67.72-1,.23-1,.61a.71.71,0,0,1-.87.49.7.7,0,0,1-.23-.11c-.38-.34-.83.38-.3.87s-1,.54-.72.84-.57.5-.38.84-.53.45-1.1.57-.87.87-.15.91-.41.15-.34.73Zm111.71-.87c-1.17-.19-2.26.78-2.12,1,.34.49,3.11.76,3.79.61s-.49-1.41-1.66-1.6ZM277.46,10.6c.23.46,2.12.5,2.12.12s1,0,1-.39.45-.72,1.51-.8,1.07-.45.08-.91-2.31.27-1.78.65-1.48.26-1.75.64S277.24,10.16,277.46,10.6Zm57.49.72c-.76,0-1.41.26-.91.46s.34.57,1.14.76,1.59-.45,1.51-.91,2.77-.88,3.53-1.07-.49-1,.34-1.06.49-.46-.53-.61-.61-1-.95-1.33-.53.38-1.86.64-2,.61-1.44.88,0,.91-.57.87-.68.58,0,.88.46.5-.3.5Zm-2.39-3c.23.19,1.55.34,1.71-.23s-2.37-.32-1.71.23ZM336.39,13c.3.26.57.19.95.26s.57,1,1.25.88,2.54.76,3.64.76,1.21-.91.87-.95,0-.57.57-1.45-1.9-1.52-1.9-.83-.72-.16-.95-.58-3.56.35-3.56.77-1.22.83-.87,1.14Zm111.3,22.64c.61.42,2.09-.19,2.69-.3s.3-.88-1.4-1.1-3.92,1-3.11,1.44,1.22-.46,1.82,0ZM318.3,30.85c.61.3,1.06.19,1-.42s-1.47.17-1,.41ZM296.57,8.62c-.07-.34-2.2-.41-2.08,0s-1.47.79-1,1.17c.91.73,3.37-.11,3.64-.45s-.49-.35-.57-.69Zm4-.6c-.76-.16-.87.45-1.25.41s-1.81.24-1.52.57,1.4.19,2.13.12c1.44-.16,1.4-.95.64-1.11Zm8.65,21.8c.15-.27-.53-.58-1.4-.58s-1,1-.57,1a3.38,3.38,0,0,0,2-.45ZM446.63,169.64c0-.49-1.81.54-1.34.71C445.61,170.46,446.63,170.12,446.63,169.64ZM445,171.46c0-.83-1.9,0-1.47.4s1.45.43,1.48-.4Zm-2.64,28.28a.74.74,0,0,1-.77-.69V199c0-.43-.11-1.05-.57-1s.15.49,0,.72-.29-.26-.52-.26-.48-.31-.48-.88-.48-.52-.48-1.17-1-1.17-1.6-1.17.12,1,.4,1.37.91.65.89.91a1.52,1.52,0,0,0,.76,1c.35.11-.2,1.11-.2,1.91s-.62.66-1,1.17,1.08,1,1.71,1.54-.54,1.78-.37,2.06.51.34,1.16.17,1-1.6,1.43-2,.17-1,.4-1.35.54-.28.85-.28.14-.77.54-.77.2-.54.43-1.14-1-.37-1.25,0-.77-.11-1.26-.11Zm-11.12,14c-.37-.46-.95.43-.48.57C431,214.35,431.61,214.18,431.24,213.73Zm6.71-9c-.42.2-.71-1-1.25-.52s-.05.6-.65,1.12-.34.68-1.05,1.8-3.16,1.74-3.53,2.34-1.59,1.08-1.62,1.54-.77.78-.34,1.4.8.14,1.16.51.74.06.91.37,1.43.32,2.37-.54.48-1.25.85-1.48.43-.92.65-1.34a1.3,1.3,0,0,1,1.42-.89c1,0,.49-.2.43-.68s.85-.58.85-1.2,1.26-1.2,1-1.69.23-.77-.17-1.06-.6.12-1,.32Zm-25.8-20.38c-.2.14-.2-1.43,0-2.14s0-.63-.31-.26-.77-.71-.86-1-.51-1.08-1-1-.17-.68-.62-.6-.55-.65-.46-1.34-.31-.14-.51-.43-.43-.05-.74.06-.4-.6-.31-.88-.06-.63-.49-.94a.9.9,0,0,1-.42-.95c0-.37-2.42-1.62-3-1.74s-.09-.68-.31-.88a2.77,2.77,0,0,1-.32-1.57c0-.63-.8-.83-.76-1.34s-.23-1-.17-1.57-.83-.72-.86-1-.51,0-1,0-.45-.63-.4-1.28a2.94,2.94,0,0,0-.6-2.06c-.4-.31-.42-1.4-.62-1.57s-.86.57-.83.94a1.29,1.29,0,0,1-.31,1c-.26.23.17,1.11-.17,1.43s0,1.57-.11,2.28a4.76,4.76,0,0,1-.4,2c-.35.49-.4,1.26-1.09,1.51s-1.59-.28-1.56-.65-.74-.6-1.14-.55-.62-.51-1.25-1-1.11.12-1.31-.45-.4-.66-.85-1-.32-.32.11-.63.34-.71.12-1.08.25-.29.82-.6,0-.69.43-.86.17-.54-.29-.63-.31.46-.48.51-.34-.71-.48-.68-.69.77-1,.4a6.13,6.13,0,0,0-2.5-.77c-.63-.09-.82-.89-1.2-.74s.06.4.48.85-1.42.77-2,.6.09.4-.37.37-.54.77-.91,1.17-.11.69-.51,1-.43.54.06,1.08-.23.57-.66.14-.85-.43-.82.06-.51.26-.43-.29-.6-.28-.71-.6a1.48,1.48,0,0,0-1.06-.79c-.37,0-.37.43-.74.43s-.46.2-.4.6-.57,0-1,0,0,.55-.23.58-.23.42-.6.42-.31.83-.26,1.26-.56-.2-.93-.09.08.49.2,1-.2.46-.4.66-.52-.54-.52-1-.48,0-1,.51.17,1.37,0,1.52a14.46,14.46,0,0,0-1.85,1.82c-.6.72-1.88.29-2.28.63s-.82.09-1.22.4-1.14.91-1.22.54-1.11-.08-1.54.37a2.8,2.8,0,0,1-1.59.89c-.49,0-.49.77-.68.94s-.15-.6-.15-.8-.45.34-.65.94.48.83.06,1.46-.83,1.25-.23,2.05.94,1.31.74,1.71-.63-.8-.77-.65.54.65.37.91-.78-1-.91-.69,1.28,2.2,1.31,2.91,1.14,1.4,1.08,2.43a6.68,6.68,0,0,0,1.14,2.94c.17.26-.4.94-.29,1.71s-.25,1.06-.74,1.06-.2.8.35.85.34.43.93.83a5.46,5.46,0,0,0,2.5.26c.49,0,.63-.74,1.28-.77s.6-.23.91-.63,1.8-.29,3.3-.2,2.16-.37,2.39-1,1.28-.57,1.71-1,.8-.43,1.9-.37a6.62,6.62,0,0,0,2.85-.83,22.13,22.13,0,0,1,2.7-.34c.68-.17.8.86,1.56.77s1.11.23,1.51.2.34.29.74.37.34.43.09.8.6.34,1.13,1.09,0,.85.32,1.42.48.43,1-.37,1.19-.28,1.28-1,.68-1.48,1.08-1.14-.29.51-.54,1.83-.71.62-.8,1,1.19.57,1.19-.12.23-1,.71-.37-.28,1.14-.17,1.43.66-.09.94-.06c.51,0,1.2,1.17,1.08,1.77s-.28,1.17.69,1.66.6.57,1.3.57a6,6,0,0,1,2.59.91c.4.34,1.42-.26,1.62-.94s.94,0,.54.2.2.77.23.4.2-.69.34-.26.65.43.85.77.43.6.43.32.11-.55.57-.72a4.42,4.42,0,0,0,1.22-.88,7.18,7.18,0,0,1,2.67-.49c.2,0,.32-1.71.43-2.6s.85-1,1-2a6.11,6.11,0,0,1,1.36-2.77,1,1,0,0,0,.77-.89c0-.54.68-1.14.68-1.8s.37-1.43.32-1.62a1.27,1.27,0,0,1,.14-1.29c.43-.45-.17-1,.06-1.17s-.09-1.08-.29-.94Zm-20.24,12.18c.17-.4-1.82,0-1.54.2S391.74,197,391.91,196.57Zm9.13,7.51c-.31.09,1,2.06.6,2.57s1.16,1.91,1.71,2,.34-.54.71-.51.22-.38.28-.66.43.31.74.14-.09-1.4.37-1.4.09-1.48-.06-2-1.39.37-2.16.46-1.92-.7-2.19-.63ZM384,163c-.05-.34-2.08.06-1.65.4s1.71,0,1.65-.39Zm38-2c.34-.2-1.42-1.3-1.3-.71a1.08,1.08,0,0,0,1.3.72Zm-2.87-2.91c0,.34,1.48,1.17,1.79,1s-1.76-1.33-1.79-1Zm3.93,2.66c.17,0-.8-2.23-1-1.75-.28.64.86,1.72,1,1.75Zm1.13,1.36c.37-.25-1.26-.81-1.16-.57s.79.84,1.16.58Zm-8.37-5.06c.84-.54-1.52-2.21-1.59-1.87s1.14,2.16,1.59,1.87Zm1.92.61c.2-.14-1-1.14-1.08-.88s.88,1,1.08.89ZM304.45,218.32c.5.22.72-.28,1.06,0a.7.7,0,0,0,1-.15.79.79,0,0,0,.13-.35c.11-.67-1.56-.56-1.72-.95S303.34,217.82,304.45,218.32Zm-18.34-87c.05-.17-1.78-.25-1.3.25S286.07,131.52,286.11,131.34Zm-7.32,32.42a1.32,1.32,0,0,0-.19.91c0,.3-.46.61-.76.57s-.8.15-.65.57-.22.34,0,.69-.42.76-1,.8-1.22,1-1.79.91-1.13.38-1.63.31-.15,1-.53,1.71a2.7,2.7,0,0,0,.15,2.32,2.1,2.1,0,0,1-.3,2.62,3,3,0,0,0-.49,3.09c.34.76.34,1.9.83,2.43s1.86,1,2.28.57.86.06,1.33-.49,1.21-3.47,1.85-5.4a26.63,26.63,0,0,0,1.4-5c-.07-.53.46-.87.23-1.44s.08-1.26.34-.8.65.45.76-.15-.45-1.57-.49-2.44-.8-1.71-.91-2.13C279.07,162.75,278.94,163.6,278.79,163.76Zm40.31-27.25a3.58,3.58,0,0,0-.07,1.72c.07.72,0,1.48.64,1.9s1.93-.76,2-1.83-1.8-3-2.08-3-.27.72-.46,1.21Zm89.57,18.68c-.95.39-2.67-.43-2.73.12,0,.34,1.06.95,2.08.95a4,4,0,0,0,2.66-1.33c0-.3.64-.84.38-1.14s-.84.15-.84.49-.6.53-1.55.91Zm-3.76.77c-.53-.5-2.46-.69-2.54-1.41s-3.52-2.44-5-2.78a9.32,9.32,0,0,1-.95-.28,41.68,41.68,0,0,0-4.4-1.55c-.57,0-.64,1-1.13,1s-1.18,1-2.09,1.33-.95-2.62-1.37-3.2-2.69-1-2.91-.38-1,.3-1.1.84.19.34.68.34.49.38.72.88,1.59.15,2.05.11.53.61-.12.38-.64.3-1.1.19-1.06-.07-.76.19.8.53.8,1.14.88.5.88,0,.45.16,1.32.38.27.58,1.14.61a9.07,9.07,0,0,1,3.6,1.26c.76.57.23,1,.72,1.48s.64,1.14,0,1.14-1.4.69-1.21,1,2.43-.15,3-.15c.34,0,.7.62,1.36,1.07a2.6,2.6,0,0,0,1.37.45c1.67.08,1.25-.87,1.55-.87s.42-.54.76-.95,1.82-.08,2.69.6,1.9,2.7,2.81,2.52,1.86.53,2.69.49.08-.68-.19-.8-.95-.57-.91-.87-.76-.27-1.29-.61-.34-1.45-.91-1.71-1-1.1-.3-1.07.8-.34.27-.83Zm7-1.83c.72-.19.19-.91-.42-1.29s-1.13-.65-.38.07.35,1.34.8,1.22Zm-46-17.12c.23.41,1.64-1.68,2.32-2.17a.92.92,0,0,0,.43-1.22.75.75,0,0,0-.09-.15c-.23-.46-.49.72-1,1.41S365.73,136.7,365.89,137Zm5.2-5.18c.84-.27-1.3-1.75-1.21-1.37.11.53.38,1.64,1.21,1.37Zm-1.59-3.5c.3,0,.53.38.34,1s.57.68,1.29.42.46.5,1.18.38,1.71.8,1.55,1.14,0,1.44.38,1.14.88.08.54.57.53,1,.64,1.6.49.12.42-.34.07-.42.57-.76,0-.91-.35-1.56-1.44-.42-1.44-1-.83-.8-.87-1.14-1.14-.69-1.78-.3-.19-.69-.65-1.18.35-1.22.88-1.83-.16-1.63-.08-2.09,0-.61-.23-.46-1.37-.45-1.86-.15,0,2.81-.27,3-.52-.4-.61-.15,0,1.75.35,1.75Zm2.5,5.82c.19,0,.65,0,.69-.38s.45.69.11,1-.34,1.29.19,1.41,1.52-1.72,1.37-2.06-.61.23-.5-.23-1.36-1.63-1.93-1.52-.38,1.84.07,1.75Zm2.28,1.49c.15.38,1.25-.23,1-.61s-1.07.32-1,.61Zm1.48.72c-.08.57-.8.11-.76.57s-.76,0-1.14-.27-.91.73-1.48.88-.87,1.36-.49,1.33.68-.65,1.13-.61.3-.46,1-.34.19,2.05,1.07,2.21.91.68,1.32.68-.07-1.22,0-1.63.91,0,1.37-.58-.3-1.94-.3-2.85-1.25-.65-.91-.08-.65.12-.73.69Zm-18.05-14.65c-.08-.27-1.1-.12-1.6-.12s-1.74.73-1.25,1.75,2.13.35,2.16-.11.78-1.17.68-1.52Zm14.22-7.08c-.34-.46-1.86.26-2.28,1.79s.56,2.3.68,2.2C370.71,118.36,372.26,115.09,371.93,114.63Zm10.77-11.27c.15-.41.53.61.19,1.3s0,1.65.49,1.56.87-1.45,1.44-2.17-.27-.46-.27-.84-.83-.3-.87-.65-.6-.15-1.17.27-.76.5-.53.91.56.05.71-.37Zm5-3.57c-.87.34-1.4-.38-1.9.11a5.24,5.24,0,0,1-2,1.49c-.65.11-.28.9,0,.76.45-.23,1.17,0,1.4-.35s2.08-.76,3.22-.8.46.54.53,1.15,1,.5,1.52-.08.87-.53.45-.88.08-.64.38-.19a1,1,0,0,0,1.47.08.74.74,0,0,0,.16-.19c.38-.61.5.11.95.08s.72-1.18.76-.76.76.3,1.21-.19,0-1.37.34-1.83a2.28,2.28,0,0,0,.3-2c-.3-.57.69-.95,1.18-1.41s-.57-2.74-.61-3.42-1.25.26-1.63.45-.64,1.37-.23,1.72-.68,1-.64,1.71-.68.72-.8,1.25-.53.42-1.18.92-1-.08-.83-.42-1,.19-.95,1-1.06.91-.8,1.29-.83.61-.8.27-.66-.15-1.53.19Zm-.15,3.24c.38.19.87-.57.87-1.14s-1.14-.58-1.29-.16-.61.23-1.22.35-.62,1.56-.19,1.71.61.11.72-.34a.81.81,0,0,1,1-.46ZM396,88.19c-.45.07,0,.53-.49.76s-.49.61-.23.76.08.65,0,1,.34.07.65-.27.62.17.68-.15-.8-.57-.76-1,.61.11,1.06-.12a2.08,2.08,0,0,1,1.94.46c.57.5.72.3.83-.3s1-.88,1.86-.88.95-.41.68-.6,1.44-1.3,1.4-1.6-.91.68-1.17.34-.72.19-1.29.3-2.35-1.37-2.81-2.06-1.21-.11-.83.38-.08.65-.08,1.34-.46.68-.38,1.14S396.5,88.11,396,88.19Zm62-35.81c.3.34,1.75.15,2.39.53S462,53,462,52.68s-2.09-1-2.35-.8-1.95.11-1.6.5ZM231.75,14.67c-.17.54.86,1,1.28,1.43a1.88,1.88,0,0,0,1.82.11c.37-.22.26-1,.74-1s.23-.42.63-.57.45.37.11.77.6.37,1.11-.11.63,0,.51.43-1.16.2-1.53.71-1.51.11-2,.68.45.6,1.16.46a8.81,8.81,0,0,1,2.56-.11c.52.11-.31.28-1.16.28s-1.14.26-1.11.49-1.2-.26-1.25.25,1.14.72,1.28,1,.94,0,1.25.15-.51.34-.63.48.89.34,1.06.63.88.14.85-.26a3.1,3.1,0,0,1,1.48-2.31c.85-.31.37-.6.48-1.08s.8-.09.6-.49-.08-.57.46-1.08.88-.15,1.53-.46,1,.23.26.29-.31.77.2,1,.06.37.45.45.29.69-.22,1.23.14.66,1.22.26.4.34.71.65,1.17-.22,1.62-.77,1.14-.45,1.11-.74-.51-.4-.91-.23-1.39.06-1.05-.26.29-.57-.23-.51-1.42-.2-1-.37-.31-.74-.71-.71-.28-.43-.25-.74-1.14-.46-.91-.58-.49-.37-.66-.14a.28.28,0,0,1-.37.11.29.29,0,0,1-.14-.28c0-.34-.85-.26-1.19-.23s-.17-.74-.51-1-.8.52-1.06.46.2-.57.34-.91-1.19-.8-1.33-.46-.4-.51-.69-.6,0,.57-.31.63-.6.31-.17.6a3.46,3.46,0,0,1,.8,1.94c-.05.22-1.36-1-1.42-1.63s-.71-1.08-.88-.66-.66.6-.51,1-.35.57-.35.23-.71-.74-1-.77.65-.2,1.08-.4-.37-.49-.74-.26-.85-.14-1.08.17-.51,0-.91-.08-.74.57-1,.45-.45.58,0,1.29.8-.23,1.34-.12S231.93,14.13,231.75,14.67Zm.49,1.69c.14,0-.49-.72-.86-1.12s-.34-.8-.85-.65.46,1.05.8,1.14.6.65.91.63Zm8-4.77c.85.86,4.21-.11,4.66.14s-2.81.57-2.67.92,2.82.62,3,.4.65.45,1.53.51.8-.34,1.45-.37,1.62-.34,1.65-.71,1.94-.83,1.77-1.46-2-.2-2.54-.46-1.7-.6-1.9-.2-.54.52-.71.35.08-1.09-.74-.83-.06,1.14-.23,1.25-1-.17-1-.57-.94.43-1.05-.05-1.17-.83-1.4-.8.23.34.09.57-.71-.23-.94-.26.14.48,0,.71-.57-.68-1-.68-.26.45-.54.48.4.37.65.57-.42.21-.14.49Zm6,49.83c.21-.21-.13-.44-.81-.25s-.79,1.14-.51,1.12a3.66,3.66,0,0,0,1.32-.87Zm-1.06-.7a.57.57,0,0,0,.79-.06l0,0c.15-.29-1.1-.16-.82.09ZM240,64.35c.15.19,1.6-1.69.88-1.67s-1.06,1.44-.88,1.67Zm-8,4.28c.47.08,1-.83.93-1.06s.48-1.28.3-1.39-.27.26-.44.3-.36-.72-.43-.3-.46-.17-.84.36.23,1,.5,1.18,0,.42-.36.34-.13.49.34.57Zm-16.57-11.4c-.49.14-.35,1.57-.21,1.43.32-.32.7-1.56.21-1.43Zm-6.09,6.89c.49.06-.38.42-.47.95s.64.3.68.69-1.06.43-1.06.8.63-.17.91-.33-.15.9.53.78.49-1,.74-1-.11.49.1.89-.5,1-.46,1.29,1.4.29,1.84-.17.64,0,.34.38a.45.45,0,0,0,.21.8c.38.13.51.17.34.48s0,.87-.11,1.16-1.27.25-1.31,0-.53,0-.4.21-.42.56-.38.8.74.19.76.5-.52.66-1.24.87.16.78.5.54.26.17.76.17.8.4,1.34.19.53,0,.12.32-1,0-1.43.19-1.92,1.66-1.63,2c.17.21.4-.3,1-.53s.65.15.95.19.32-.63.57-.57.47-.21.93-.14a1.17,1.17,0,0,0,1-.28c.23-.19.84.38,1,.24a3.68,3.68,0,0,1,1.44-.26,4.17,4.17,0,0,0,1.78-.74c.28-.27-.17-.33-.55-.27s-.3-.38.09-.76,1-.67,1.07-1.24-1.22-1-1.35-.66-.42.26-.63-.08.19-.67,0-.7a.8.8,0,0,1-.42-.7c.06-.19-.32-1.41-1-1.56s-.74-1.07-.85-1.56-.53-.23-.86-.65-.87-.21-1.15-.19,0-.53.45-.83a4.81,4.81,0,0,0,1-2.25c0-.32-2-.3-2.37-.11s-.76-.29-.44-.42,1-.8,1-1.07.47-.51.19-.76-.33.32-.57.51a2,2,0,0,1-1.39,0c-.58-.11-.81.73-.8,1.09s-.68.57-.56.87-.14.53-.33.36-.4-.59-.77-.28.44.69.93.75Zm-1.46-1.33c.51,0,1.1-.89.86-1.14s-1.24,1.15-.86,1.14Zm-.8,10.41c.65-.61,1,0,1.57-.33s.23-2.53,0-3a.28.28,0,0,1,0-.2c.08-.26.68-.31,1-.62s-.19-.94-.72-1.45-1.1.26-1.6.26a.45.45,0,0,1-.16,0c-.53-.21-1.27-.21-1.29.27s.59.3.61.6-.61.23-1,.54-.91-.21-1.37,0,.49.49.15,1,0,.45.59.91-.34.57-.34,1.08-.7.5-.85.84.6,1,1.27,1a4,4,0,0,0,2.22-.91Zm-8.72-24c.3,0,.8-.57,1-1a.84.84,0,0,0-.57-1l-.09,0c-.45,0-.8-.36-.7-.63s-.25-.61-.23-.8-.56,0-.87.06-1-.75-1.23-.59-.08.55-.15.78-.76-.21-.76.05-.29.3-.51,0-.76-.11-.74.12-.23,0-.67-.23-.89.3-.85.59-.15.36-.51-.27-.78.06-.59.4.12.76-.17.59-.66.12-.83.38-.78-.78-.34-1-1.39-1.3-2-1.3-.19.42.19.73-.26.22-.47,0-.61-.06-.84.32-.6.59-.64.86.64.55,1.23.3a1.6,1.6,0,0,1,1.56,0c.3.28-.55.4-.25.63s.06.41-.66.36-1.6.15-1.46.4,1.84-.21,1.85,0,0,.67.46.48.15.34.38.44.17.55-.44.59-.9.16-.64.42,1,.09,1.63-.06,1.57.63,2.33.93a2.21,2.21,0,0,0,2.22-.51c.15-.4,1.18-.25,1.59-.53a3.3,3.3,0,0,1,1.73-.67c.74,0,.72-.86,1-.82Zm62.06,50.1c.43-.17.26-.5,0-.25a3.27,3.27,0,0,1-1.82.55c-.85,0-1.12.6-.59.92s1.78-.19,1.75-.4.25-.65.68-.82Zm-11.09.28c-.3-.17-1.67.12-2-.23s-1.1.27-.78.33a9.46,9.46,0,0,0,1.88.49c.74,0,1.74-.34,1.72-.53s-.48.11-.78-.06Zm-29.2-6c.57.38,1.21.27,1.12-.38s-1.4.19-1.11.38ZM13.26,119.83c.23-.38-1.11-.62-.8-.13S13,120.2,13.26,119.83Zm-2-1c.1-.36-1.15-.37-.75.06s.65.29.75-.07ZM1.52,70c-.28-.35-1.21,1.19-.68,1C1.52,70.72,1.8,70.38,1.52,70ZM.84,58.76c.14.43,1.3.71,1.79.55A.53.53,0,0,0,3,58.7a.59.59,0,0,0-.15-.28c-.32-.28-.86.4-.91-.06S.69,58.33.84,58.76ZM4,69.3c.4,0,.56-.35,1-.35s1.31-.28.68-.51S3.4,69.21,4,69.3ZM15.9,123c.27-.21.77-.25.92-.52s-.28-1.14-1-1.05S15.51,123.25,15.9,123Zm-.88-2c.46-.34.29-.7-.13-.63s-.15.83.13.63ZM19.1,62.1c-.57.66-1.06,1-1.14,1.32s-.74-.06-.94.34.14,1.28.54,1,.43,0,.68,0a4.29,4.29,0,0,0,1.68-1.2c.26-.4-.46-.52-.48-.77s.6-.26.91-.43-.29-.32-.26-.63-.42-.28-1,.37ZM144.2,74.22a6.52,6.52,0,0,0-2.08,2.89c0,.58,0,1.26-.57,1.22s-1.14.46-.72.76-1.1,1.17-.38,1.56c.49.27,1.29-.11,2,0a2.29,2.29,0,0,0,1.82-.3c.57-.42.57.38,1.18.3s-.35.5-.3.92.64-.23,1.1-.46,1,0,.8.38,1.25.76,1.59.15-.34-1.56-.57-1.14-.57-.3-.08-.68-.07-.54-.53-.3-.34-1,.08-1.26-1-.68-1-.26-1,.15-1.13-.23-.84-.5-.57-.76-.87-.42-1,0-.45-.3.12-.91.38-1.14.91-1.45,0-.65-.62-.42Zm-7.07,4c.11-.63-3.63-1.59-3.53-1.2s3.41,1.82,3.53,1.2ZM110.85,52.8c-.12-.46-3.26.74-2.16,1.43.91.57,2.27-1,2.16-1.43ZM80.08,17.87C80,18.72,81.53,20,82,19.41S80.19,17,80.08,17.87Zm-6.43-1.66c.4.34,2.16.63,2.16-.28s-2.22-1-2.79-.69-3.18.46-2.44,1c.45.35,1-.11,1.53.11S73.25,15.87,73.65,16.21Zm.45.74c-1.19.18-3.24.17-3.24,1,0,.69.4,1,1.71,1.14S75,18,74.39,18s-.23-.4.51-.51.4-.69-.8-.52Zm13.31,4.91c.8.69-.4.35-1.48-.4s-1,.52-.45.92-.11,1-.8.05-1-1.88-2.1-1.94-.59,1.06-.17,1.6a5.4,5.4,0,0,0,2,1.43c.91.51,2.39-.23,3.08-.06s-.74,1-.29,1.6,1.71.17,2.67.12.52-.63,1.08-1-.56-.34-.11-1.31-1.42-2.51-1.48-1.94S88,20.78,87,20.38s-.39.8.4,1.48Zm-4.1-6.45c-.22.52-2.2-.1-2,.35,0,.17.28.85,1.65.45a3.54,3.54,0,0,1,3.41.63c.91.74,1.76,1,2.39.28s-.8-.85-.51-1.42-.91-.92-1.54-.92-.85-1.14-1.37-.91-.85.63-.85-.11-3-.8-3.7-.52.17,1.83.85,1.37,2,.29,1.72.8Zm4.38-4.11c.4.35,1.31,1.32,1.71.63S87,10.71,87.7,11.3ZM47.16,72.8c.35-.22-.6-1.31-.6-2s-.33-1.38-1.35-.83,1.44,3.15,2,2.82ZM93.73,13.24c.91.4,3.52-.51,3.75.12s-2.67.68-2.27,1.08,2,1,1.82,1.37,2.73,1.32,3,.86,1.08-.34,1.82-.06.8-1.77,1.31-1.43.46-.74,1.31-1.08,2.08-.35,2.16-.74-.23-.69-1.25-.57-1.71-.29-1.25-.86-1.14-.74-.57-1.2-1.08-.91-.91-.23-1,.06-1.2-.57-2.5-.85-4-2.22-3.13-.46-2.22-.29.85.63.11.57-2,.06-.85.51-.12.63-1.08.63-1,1.26.22,1.43.35.91-.68.63-1.36.22-.45.68S92.82,12.85,93.73,13.24ZM58.06,35.16c.46,0,.12-.57.85-.57s.57-.4,1.26-.34,1.25-.17,1.25-1,.51-1.09,1.19-1.26.06-1,1-1.25a21.32,21.32,0,0,0,4.1-1.72c.45-.34-.57-.8-1.6-1.42s-1.82-.8-2.61-.29-.17-.57-.8-.28a3.68,3.68,0,0,1-2.56-.75c-.23-.28-3.3.63-4,.63s.06.8.57,1.2-1.25,1.66-.91,1.94-.34,1-1.14,1.94.57.86,1.59,1.09S57.38,35.16,58.06,35.16Zm1.65-12.44c.62.21.74-.34,1-.63s.18,1,.91,1,.52-1.37,1.08-1,.74-.17.86-.57.11-1.09.74-1.2.11.62.4,1.14c.41.75,1.14.06,1.19-.29s1.08-.11,1-.51.28-.51,0-1,.45-.34.8-.69-.46,0-1-.57-.8.17-.8.52-1.08,0-1.7-.17-1.43.74-2.34,1.2-1,1.25-1.82,1.2-2.1.74-1.7.91,0,1,.45.74S59.37,22.61,59.71,22.72Zm5.35-.29c-.06-.51-2.5,1.26-2,1.32C64.09,23.86,65.12,23,65.06,22.43Zm2.33.29c.91,0,1.19.28-.11.23s-1.88,1.08-1,.85,2-.22,1.31,0-2.55.39-2.28.75.91.17,1.65.45,1.2.46,1.76-.17,1.31-1.25,1-.4.91.23,2.44.17-.28.92-1.87,1-1.31.91-.06,1.2,3.93-.8,4.55-1.43,1.2.35,1.82-.11,1.82.06,2.9-.17,1.25-2.29.46-2.63-.8.4-1.43.52-1-.69-1.47-1.2-.18-1.49-.91-1.37-2.34,1.31-1.37,1.42.63.63.11.86,1.2.63,1,1-2.84.06-3-.51-2.16-1.6-3-1.37-.51-.69-1.37-.74-.57.74-1.36.8-.74.85.17.85Zm1.08-5.31c.4.51,1.42,1,1.71.34s-1.89-.57-1.71-.34Zm25.6-.28c.74-.29-.4-.29.11-1s-1.25-.75-1.36-.52-2.33-1.37-2.68-.85.8,2.74,1.65,2.74a6.12,6.12,0,0,0,2.28-.4Zm5.18,8.67c.62.46,1.59.74,2.1.29s.74-.8.91-.4c.28.65,1.54.74,4.27.8s2-1.14,2.84-.69a6.3,6.3,0,0,0,3.41.29c.8-.17,1.2-1.43,1.14-2.06s-6.14-1.14-7.22-.51-2.79-.28-3.64.17-.57-.57-2.1-.63.11-.85.4-1.2-2.34-1.25-3.42-1-1.7-.35-2.73-.8-3.8-.35-3.24.45c.4.57,3.7,1.77,4,1.2s1.19.69,1.7,1.32-.34.85.06,2,.85.34,1.47.79Zm14.61,28.26c-1,0-.79,1.51-.17,1.42.4,0,1.2-1.48.17-1.42ZM111,49.66c.11-.63-1.88-1.14-2.5-1.48s-1.59-.52-1.59-1.2-1.37-.17-1.42.85-.63.8-.35,1.77-1.25,1.2-1.08,1.72.91-.06,1.6-.06-.19,1,.68,1a3.34,3.34,0,0,0,2.16-1.2c.29-.46.85-.63,1.65-.06s2.5.63,2.62.06-1.88-.8-1.77-1.43ZM100.1,6.4c-.68.34-.46.57.51.51s-.4.28-.4.86,1.14.22,1.19.8,2.5.8,3.25.11.45.17.4.63,3.47.85,3.64.28.68-.34,1.36-.17,4-.63,4.1-1.31,1.08.34,0,1.08-3.24.63-4.21.92.63,1,1.6,1.71-1.25.34-2.16-.63-3-1-4-.91-.74,2.05,0,2.05a2.69,2.69,0,0,1,2.39,1.54c.8,1.26,2.5,1,2.5,1.55s-2.22-.46-3.47-.69-3.24.57-3.3,1.48,1.82.8,3.08.06.34.23-.29.8,1.48,1,1.48,1.71-1.54.46-1.71-.17-.74-1.25-2.22-1.14-1.08,1.14-.17,1.26,1,.8-.05.8-3.34.64-2.62,1.31,3.7,0,4.21.46,1.93.62,2.28.11,1.47-.28,2.61-.28a2.27,2.27,0,0,1,1.94.62,1.72,1.72,0,0,0,2-.17,1.65,1.65,0,0,1,1.43-.45c.8,0,1-.52.56-1.15s-1.42.46-1.53,0-1.08-.74-2.67-.51-.91-1,.05-.74a6.83,6.83,0,0,0,3.36-.12c1.08-.28.22-.8.22-1.25s1.37-.17,2.39-.17,2.5-1.66,2.56-2.63-2.27-.74-3.41-.74.74-.86,2.9-.74,1.19-.86,1.59-1.2,1.42.4,2.5.17.34-1.14,1.08-1.14c.53,0,1.71-.8,4-2.11s4.15-1.09,4.27-1.83-3.25,0-3.81-.23,2.33-.86,3-.68,1.59,0,3.93-1.15,1.3-1.42.34-1.25-2.05-.17-2-.8-1.43-.06-1.48-.4-1.43-.17-2.9.4-.12-.57.51-.8-3.76,0-4.5-.51-1.59.85-2.27.17-2.45-.12-2.22.4-.28.51-1-.06-2,.06-3.18-.11-.68,1-2,.4-2.73-.29-2.33-.12-.12.52-.69.34-1.08.06-.8.63S110,3,110,3.66s-.85,1-1.54.4-2.84-.74-2.22-.23-1.93.23-1.25.74-.85.92-.85.63-1.42-.8-2-.29-.74,1.15-1,.8-1.54-.22-2.74.23.17.8,1,.29,1.43-.18.75.17Zm19.45,35.21c-.28-.4-1-.45-1.65-.4s-1.7,1-1.14,2,1.94.23,2.62.12.56-1.18.17-1.72Zm5-7.48c-.17-.51-1.65-.57-1.93.06s-1.48-.68-1.48-1.2-1.82-.06-1.59-.91S117.4,31,116.77,31s-1.54.52-1.43,1.09-.68.34-.8-.29-1.65.69-2.1.69.28-1.66.06-2.17a13.25,13.25,0,0,1-.91-1.54c-.34-.86-2-.52-2.5,0s-1.94.28-2.73,1.08,0,1.6.4,1.89-1.2.74-.69,1.2,1.31.22,1.37,1-1.88-.23-2.16-.86.11-1.2-.29-1.65,0-1,.69-1.83,1.3-.69,1.3-1.14-3.18-.46-5.06,1.25a4.42,4.42,0,0,0-1.19,4.45c.11.46,1.76.23,2.73.52s.45.68-.29.57-2-.34-1.93.17a2.68,2.68,0,0,0,2.5,1.26c.91-.23.91-.23,1.31.28s1.48.34,2.56.4a27.24,27.24,0,0,1,2.84.51,1.56,1.56,0,0,0,1.31-.57c.17-.28,2.28.46,2.9.4s.23-.62-.17-.8-.23-.91.29-.62,1.36.45,1.53,1,.63.23.68.62,1.88.86,1.94,1.32-1.77.68-1.25,1.08,1.31-.51,2-.57.68,1.48,1.19,1.26c.7-.31,1.25.28,1.94,1.25s-.06,1.88,0,2.23,1.36.23,2.1-.17,1.42.45,2,1-2.1,1.37-1.88.91-1.59-1.83-3.24-1.2-.51,1.6-.34,2.17-1.48,1.14-3,.63-1.08.34-1.71.34-1.31,1-.74,1.6,1.82.05,2.84.11,1.14.34,1.26-.23,1.19-.28,1.93-.11.57,1.2,1.48,1.31.17,1,.74,1.66,2.39.28,3.07,1,3.58,2.05,4,1.54-2.5-3.2-3.36-3.43.86-.51,1.94.35,2.67,1.25,3.47.23-.68-.75-.68-1.49-.52-1.77-1.31-1.77-2.85-1.6-2.11-1.94-.22-.8.34-1.43,1.14.57,1.83.63.8.91,1.87,1.83,1.2.28,1.37-.34,1.36-.12,1.31-.75,1-1.37,1.65-1.65-.57-1-1.48-.91a.9.9,0,0,1-1.07-.7.87.87,0,0,1,0-.28c0-.4-1.71-1.36-2.28-1.2s-1.53-.74-2.27-.8-1.83-.62-1.71-1.42,1.48.23,1.76-.4-1.42-.29-1.48-.74.4-.29.74-.58-.28-.85-.68-1.08-.51.46-.91.46-.06-.63.23-1-1.31-.86-2-.63-.91-.17-.91-.63-1.2,0-1.65.35-1-.35-.46-.4,1.25-.51,1.08-1Zm-33.73-.62c1.42.05,1.48-2.29,1.71-3.14s-1.14-.8-.8-.17-.06,1.25-.17.51-1.2-.06-1.6-.63,1.25-.62,1.65-1.37-1.31-.62-.91-1.2-2.5.06-1.65.4.06.8-.74.23-3,.39-2.21,1c.62.51,2.5-.34,1.42,1.14s-1.54-.4-2.56-.23-.57,1.43,1,1.89,1.36,1.31,2.61,2.17.86-.69,2.28-.63ZM86.5,37.73c.06-.86-1.59-1.26-2.27-1.71s-1-.23-2-1,.28-1.2-.51-1.83-1.08-2.34-.51-2.91,1.19-1.43.17-1.82-2.68.34-2.5.57,1.59,1,1.59,1.37-1.31-1-1.77-.69-1-.57-1.36,0,.51,2.57.85,3.14-.34.57-.8.69-.51-1.6-1-2.23S74.1,29.91,74,30.37s1.13.45,1,1.08-.85-.4-1.47.12-.52.17-.4-.35-.91-1.08-2-1-.51.92-.86,1.2-2-.17-1-.4.62-.85.22-1.48-1.47.11-3.24.74-2.56,1.31-2.33,1.37.28.34-.4.91,0,1.09.63,1.09.07.5.51.63,2.44-.8,3-.4-3.35.62-3.35,1.31S66.42,36.3,68,36s4.38.23,4.38.63-1.88.28-3.3.22-3.87.4-3.75.86.28.51,1.76,1.2,3-.34,3,.63.8,1.2,2.78,1.25,2.9-.91,3.87-.85a1.74,1.74,0,0,0,1.88-.8c.46-.69.85-.29,1,.05s1.36.29,1.65.57c.72.73,3.13.52,4,.06s-.4-1.71-.86-1.14-.85.23-1-.06.91-.45,1.25-.85S86.45,38.59,86.5,37.73Zm6.15-19.24c1.13.86,3.86-.34,3.75-.68S92,18,92.65,18.5Zm6.77.75c.91.34,2.27-.46,1.25-1s-2.31.58-1.25,1Zm-17.64,5c-.34.8.79,1.09,1.2.63s-.85-1.43-1.2-.63Zm10.13,1a9.42,9.42,0,0,0,3.86.91c1-.06.52-1.31-.62-2.17S91.46,24.88,91.91,25.23Zm21.16,4.85c.05.86,1.13,1.14,1.93.63s3.07.15,3.07-.52-2.39-1.77-3.24-1.6-2.22-.85-2.56-.11.74.75.8,1.6Zm55.82,196.54c.5.44,1,1.28,1.45.5s-2.62-1.5-2.56-1.23C167.9,226.39,168.39,226.17,168.89,226.62ZM186.11,37.24c-.76-.19-2-.84-2.85-.35s-.34-.72.38-.83.42-.46.23-1.22,1.21-.27,1.82.61a2.57,2.57,0,0,0,2.81.95c1-.3,0-1.14.45-1.71s-3.15-2.36-3.34-3,.91-.19,1.9.23,1.22-.8,1.22-1.33-2.13-.58-3.08,0-1.85-.69-.56-.84.11-.69.49-1.07,2,1.1,2.84.84,1.44,0,2.16-.53-1.29-1.1-1.7-1.6,2.08-.3,2.84-.27.95-1.1.34-.87-2.77-.76-2.31-1.45,1.29.12,2.24-.38.07-2.36-.61-2.36-2.28-.23-2.28-.57-1.32-.65-.94-1,.87.42,1.74-.23,2.69.15,3.49,0-.34-1.63-.8-1.37-2,.35-2.12-.45,1.48,0,1.74-.38-2.2-1.37-2.58-.57-1.74.53-1,.07a2.75,2.75,0,0,0,.8-2.4c-.08-.65,2.58-.68,2.27-1.75s1.25-1.29,2.13-1.29,0-1.14-.88-1-1.7,1.06-2.12.69,1-1.07,1.74-1.07a9.07,9.07,0,0,0,3.23-.46c.64-.38-1.14-.72-2.35-.57s-1.22-.38.6-.42,1.52-.42,2.81-.57.87-.68,1.67-.72,2.88-.91,2.88-1.33-3-1.26-4.4-1.26-2.54.23-2.62,1.22-1.85-.19-2.61.15-.38-.8-1.14-.42S189,7.63,188.12,8,186.53,9.34,186,9.42s1.21-1.75,2.12-2.67.42-2-.8-1.86-.94.87-1.63,1-3.94,1.79-4.1,1.29,2.7-1.33,2.66-1.67-3.6-.38-5.2-.16-4.4,1.15-4.44.69,3.26-1.1,4.93-1.29,4.74.11,6-.42,3.22-.57,3.57-1-1.48-1-2.39-1-1.82-.08-1.75-.54-1.4-.57-1.55-.91-3-.08-3.6-.46A8.52,8.52,0,0,0,175.9.06c-1.52.11-4.62.07-5.35.15a11,11,0,0,1-1.82.3c-.64,0-1.63.19-1.25.61.69.76-1,1.06-.91.49s-1.47-.83-2-.42-3.11-.49-3.49,0-3.37.35-4.25.5,1.37.8,1.29,1.18-2.84,0-2.27.68,2.39,1.18,3.26,2.06-.68.34-1.67-.3-2.24-.42-2.84-1.07-2.88-1.14-3.45-.76,1.55,1.3,1.55,1.79-1.51-.11-1.78.08-1.59-1.3-2.35-1.3-.11.69-.11,1.64-1.48,1.52-1.07.87.12-2.32-.68-2.62-2.84.65-3.91.61-2.46.3-1.55.83,0,.84-.84.27-3.41,0-2.88.38A1.65,1.65,0,0,1,137.94,8c-.34.46-1.44-.46-2.46-.38s-6.1,2.51-5.8,3.16,2.46.11,3.14.49-.22,1.79-1.06,2.36-3.94,0-4,.73-4.89.8-4.89,1.9a.94.94,0,0,0,.76.95c.68.14,1.52-.08,2.12.61s2.32.72,3.49.26,2.05.08,2,.76-2.65-.26-3.45.23-3.26.08-3.15.61,1.33.42,2.32.61.07.61,0,1,.54.34,1.52.83,2.62.8,2.09.23,1-.49,1.29-.15,1-.49,1.7-.3,1-.68,1.56-.3,3.22.61,4.13,1.1,2.16.61,2,1.33.76,1.26,1.78,1.72a2.05,2.05,0,0,1,1.18,2.09c0,.64,1.1,1.1.91,1.41s0,.72.64,1.33-1.06,1.06-.64,1.6-.61,1.56.6,1.75,1-.84,1.94-.84,0,.8.45,1.29,1.52.39,2.47,1.18.34,1.18-.53.54a4.81,4.81,0,0,0-3.42-.27c0,.23,2.81,1.83,3.46,1.6s1.51,1,1.13,1.33-.19,1.33-.26,1.79-1,0-1.63.08-1,.26-1,.91-1,1.1-1.06,1.9.76.76,1.25,1.1-.91.57-1,1.14,1.29,1.6,1.78,1.87,0,1.56.23,2.2.83-.15.75.69.61.8.65,1.29,1.21.42,1,1.1.34,1.18.6,1.56,1.25,1,1.44,1.52.76,1.15,1.44,1,.73.45,1.26.38a1.6,1.6,0,0,1,1.51.64c.16.42,1.79.8,2.24.88s.53-.76.95-1,.26-1.9.64-2,.27-1.86-.11-2-.23-.76.64-.65.57-.76,1-.88.23-.91.53-1,.26-.61,0-.92,0-.53.49-.61.34-.72-.27-1-.41-.91.19-.49,1.07.11.72-.35.42-.68,1.22-.76,1.21-.49,1.06-1.1.91-.57.65,0-.12,1.06.26.68,1.1-.11,2.39-.49a4.34,4.34,0,0,0,2.84-2.48c.3-1,1.79-.91,1.6-1.6s.26-1,1.21-.49.19-.3,1.25-.3.87-.38,1.9-.42,3.68-.5,4.59-1.26a31.45,31.45,0,0,1,3.64-1.9c.8-.49,1-.91.49-.64A3.75,3.75,0,0,1,186.11,37.24Zm-37.4.34c-.38-.72-2.31-1-2.5-.46-.07.23-.68.57-.19,1.1s.84.3,1.4.84,2.28.08,2.32-.53-.65-.23-1-1ZM99.47,148.92c.29-.46-.23-2.17-.8-1.32S99.24,149.3,99.47,148.92Zm40.16,71.86c-.62-.12-2.12,1.15-1.48,1.48s2.11-1.37,1.48-1.48Zm2.33.62c-.45-.85-2.56.75-2.1,1s2.32-.55,2.1-1Zm-9.84-97.6c.23-.57-2.61-.8-2.1,0s2,.33,2.11,0Zm-14.11.35c.23-.52-2.9-1-2.61-.46s2.39,1,2.62.46Zm.29-4.4c-.85,0-3.64-1.94-6.2-2.51s-4.79,1.27-4.55,1.6,1.59-.57,2.22-1,1.19.23,1.25.51.85.46,2.16.52,1.48,1.14,2.73,1.42,0,.8.63,1,3.92.17,4.15-.11-1.54-1.43-2.39-1.43ZM143,187.56l-.5.55.5-.55Zm-1.49-13.87a.42.42,0,0,0,.22-.08h0A.49.49,0,0,1,141.51,173.69Zm-11.82-28.53,0,0h0Zm-2.93,25.55,0,0s0,0-.06,0A.1.1,0,0,1,126.76,170.71Zm-.63-17.54-.4-.08ZM119,148l.07.08-.13-.15Zm-17.41-23.7h0Zm-.23,4.55,0,0,0,0ZM90.48,70.27c.46.57,1.14,2.91,1.54,3.65s.4,1.94-.11,2,0-1.66-1.09-2.28a3.74,3.74,0,0,1-1.93-2.86.93.93,0,0,1,1-.79,1,1,0,0,1,.55.27Zm-20-14.4c-.77.14-.16.91-1.09,1S66.28,57,66,56.49c-.11-.18,1.22-.05,1.31-.43s.45-1,1-1,.52-.75-.41-1.2,1.34-.75,1.86,0,1.44,1.25,2,.73,3.48-2,3.48-1.3S73,54.4,72.11,55.17,71.3,55.74,70.53,55.87Zm-7.38-8.94c-.76-.13-1.24.25-.86.53s.41.5-.38.68-1.31.79-1.63.72,1.36-1.27.93-1.59-1.49.55-1.52.94-.72.4-1.15.38-1-.43-.57-.48.14-.52.73-.74-.12-.57.07-.82,1.38.25,1.4-.2-1.2-.84-1.61-.57a2.52,2.52,0,0,1-2.49.41c-.35-.16,2.85-.5,3.4-1s3-1.07,3.16-.61-1.31.75-.59,1.16a1.93,1.93,0,0,0,2.17-.3c.27-.43,1.45-.36.7.57s-1,1.06-1.75.92Zm37.94,33.18c.63-.5,1.12-1.57,1.68-1.57.74,0,2.61.17,2.73,1.14s1.25.06,1.36,1,.85,1.39.73,1.8a.36.36,0,0,1-.16.2c-.47.33-.34-.51-1.19-.51s-1.71.8-2.39.46-.34-.8-1-.8.46-1.2-.45-.69-2.28,1.77-2.9,1.2-1.2.17-1.65-.29,1.59-1.71,2.56-1.65a1,1,0,0,0,.66-.26ZM108.32,83a4.24,4.24,0,0,1,2,.26c.8.29,2-.34,2.38.63s1.33,1.7.46,1.77-1.71-1-1.65-.4-.4.28-.4,1.14-.57,2.06-.91,2h0c-.33-.15.18-1.42-.48-1.64s-1.48,1-1.36.22,1.13-1.37.51-2.34-1.77-1-2-.22-1,.4-1.31,1a4.58,4.58,0,0,0-.34,2.73c.22.92-.06,1.37-.91,1.89s-1.3-.79-1-2.45c.23-1.15.85-2.23.28-2.23s.74-1.37,1.94-1.66,2.67-.17,2.67-.51a.19.19,0,0,1,.15-.15Zm6,5.58c-.22.45-2,1.3-2.94,1.82s-2.56.28-2.56-.58.8-.68,1-.28c.07.15.26,0,.52-.15.43-.31,1-.86,1.59-.82.85.06,1.08.57,1.64.17s.69-.57.8-.28a.13.13,0,0,1,0,.12Zm3.78-2.25.05.07c.41.74-1.08,1.2-2.5,1.26a7,7,0,0,0-1,.1c-.57.08-.76.12-.91-.27-.23-.58,1.7-1.15,2.61-1s1.48-.5,1.78-.13Zm49.14,66.45a3.47,3.47,0,0,0-3.75-1.17c-.94.26-1.91-.46-2.53-.6s-1.23.66-1.68.83.23-.69.25-1.23-1.7-1.31-3-1.82-1.88-.26-1.88.57-.51-.26-.91.62-1.13.32-.65,0a2.93,2.93,0,0,0,1.11-1.48c.17-.54-1.88-1-2.59-.69s-.26,1.32-.83,1-.11-1.08.35-1.05,1-.92,1.28-1.6-.54-.8-1.06-1.37-.4-2.21-.92-2.47-1.38-1.56-2.2-1.73a6.84,6.84,0,0,1-1.08-.36,2.74,2.74,0,0,0-1.29-.29c-.68.08-1.39.4-1.64,0s-.63-.31-1,0c-.48,0-1-1-1.31-1a.64.64,0,0,1-.66-.64.29.29,0,0,1,0-.13c.08-.49-.8-.55-1.28-1.09a1.26,1.26,0,0,0-.48-.3,5.29,5.29,0,0,0-1.86-.19c-.48,0,.32-.54.35-1.05s-1.37-.6-1.91-.71-.4-.69.17-.72-.31-.43-1.08-.31a9,9,0,0,0-2.47.88c-.63.35-1.71-1-2.42-.71s-1.71.28-1.68-.29a.87.87,0,0,0-.71-1h-.29c-.71.06-.54-.71-1.08-.71s0,.66-.37.83-1.65.48-1.74,1,.69,1.37.43,1.88-1.11.09-1.37-.45.75-1.37.57-1.69a1.31,1.31,0,0,1-.17-.89c.89-.36,1.17-.73.63-1.05s-.85.6-1.45.69-.71.45-1.11.65-1.14,0-1.17.37-.25,0-.6-.08-1.22.68-1.19,1.11.17.83-.46,1.23a6,6,0,0,0-1.28,1.48c-.5,0-.76-.46-1.08-.94-.45-.68-1.28-.63-1.79-.86s-1.16.09-1.82.69a1.7,1.7,0,0,1-2-.06,3.33,3.33,0,0,1-.66-.59,16.38,16.38,0,0,1-1.27-1.59,2.37,2.37,0,0,1,.14-1.93c.17-.54-.14-1.85.17-2.2s.14-.54.29-1.34-.84-.55-1.43-1.14-2-.34-2.73-.06-1.59-.31-2.39.15c-.47.25-.61,0-.54-.3a1.23,1.23,0,0,1,.4-.65c.51-.4-.26-2,.34-2.14a2.58,2.58,0,0,0,.85-1.91c.09-.77-.17-1,.23-1.45s.83-.46.71-1.06-.65,0-1.11-.29-.85-.08-2,.09-1.7.66-1.65,1.48-.4.46-.37,1.17-.91.75-.85,1.17-.74,0-1-.14a19.23,19.23,0,0,0-3,.66c-.34,0-1-.72-1.45-.69s-.68-.71-.74-1.31-1-1.14-1.37-1.68a5.59,5.59,0,0,1-.48-2.52,9,9,0,0,1,.43-3.6c-.08-.66-.28-.74-.42-.73a.94.94,0,0,1,.53.2c.06-1-1-1.19-.37-1.66s0-1,.31-1.23.94-.46.94-.8.32-.34.77-.29,1.31-.74,1.25-1,.09-.37.63-.26.45-.63.8-.51.62.31.65.06.37-.2.63.14,1,.43,1,0,.48,0,.85.4.55.28,1.09.31.54-.11.56-.46.6.74,1.14.8.12-.34-.28-.65.08-.46-.26-.72.43-.6,1.11-.57.65.2.91-.2.51,0,.51.34,1.11-.2,1.71-.2a1.32,1.32,0,0,1,1.19.86c.06.34.46.52.89.14s.8-.8,1.19-.4.8,1,1.28,1.43-.23,1.09,0,1.46,0,.88.54,1.28.06,1.23.51,1.34.83.83.88,1.12.91.65,1,.17.51-1.06.57-1.52a6.28,6.28,0,0,0-.71-2.6c-.37-.51.08-.62-.37-1.22a4.34,4.34,0,0,1-.71-2.52,5.32,5.32,0,0,1,1.5-2.68c.49-.43,1-.2,1.14-.65s.71-1,1-1,.71.08.77-.29.63-.82,1.37-.94.31-.51.11-.85c.46-.23.91-.2,1.2-.4s.93-.75.31-.78-.77-.28-.4-.42.05-.83-.46-.89-.34-.31,0-.63-.45-.82-.82-1.08.23-.4.51-.46.06-1.37.2-1.68c.23.31,0,.83.31,1.26a1.6,1.6,0,0,1,.35,1.54c-.15.65.14.48.56-.37s.49-1.6.2-1.69a1.63,1.63,0,0,0,1-.6c.49-.51,1-1.4.69-1.6s.14-.4.71-.37a3.94,3.94,0,0,0,1.87-.51c.28-.56-2,.25-2-.06s1.42-.63,2.08-.66.34-.91.62-.54a.76.76,0,0,0,1.08.09h0c.37-.23.09-.89-.34-1s.31-.4.17-.66a1.44,1.44,0,0,1,.83-1.4c.54-.11.28-.46.74-.46s.54-.54.94-.94,1,.63,1.59.06a6.68,6.68,0,0,1,1-.72,2.85,2.85,0,0,1,1.34-.56c.51,0,1.28-.66,1.51-1.09-.37.69.45,1,1.25,1s-.37.29-1,.26-.85.06-1.65.86-.6,1-.14,1.42,1.05.23,1.68-.31.6-1.09,1.22-1.06a13.09,13.09,0,0,0,3-.8c.71-.22.26-.34.26-.65s1.25-.32,1.7-.63-.08-.57-.48-.51-.08-.58,0-.89-.85.14-.88.51-.65.52-.65.75c0,.66-.09.31-.54.54s-2.22,0-2.28-.4-1.34-.6-1.39-1.14-.69-.72-.17-1.31-.09-.89-.57-.43c.54-.77,1.76-1,1.14-2.17s-4.55.34-5.55.91-2.25,2.4-2.79,2.4.94-1,1.17-1.34-.06-.74.26-.6,1.19-1.23,1.79-1.68,1.25,0,1.33-.4.37-.63.94-1.15,7.37-.42,8-.4a3.78,3.78,0,0,0,2.3-1.42c.37-.57.86-.57,1.77-.52s1.33-.77,1.79-1.08c-.51-.63-.88-.89-.48-.91s.6-.26.76-.77-.14-.29-.68-1-.82.23-1.36.17.37-.74-.09-1a1.89,1.89,0,0,0-2,.49c-.68.57-.63,0-1.22.54s-.6-.29-.32-.52.49,0,.74-.31.51,0,1.17-.43,1.22-.23,1.42-.54-.31-.74-.94-.6-1.05-.86-1.45-.57-.31-.43-.77-.14-.71-.09-.91-.63a4.34,4.34,0,0,0-2.16-1.66,1.88,1.88,0,0,0,1.17-.91c.17-.28-.29-.54-.51-.57s-.23-.4-.17-.69-.8-.65-.83-.94-.51-.48-.48-.74-.49-.63-.49-1-.85-1-.88-1.43-.48-.68-.65-1.17-.4-.26-.57.43-.77.66-.6.88c.35.47.08.49-.17.78s.17.71-.26.71-.22.88-.45.48a.4.4,0,0,0-.77.12c0,.4-.91.77-1.28.74s-.37-.8-.68-.57-.26-.66-.74-.63-.83,0-.68-.45-.83-.63-.52-.89-.08-.71-.14-1.46.43-.8.43-1.08-.34-.28-.68-.06-.35-.31-.71-.28-1.48,0-1.54-.54-.43-.26-.6-.75-.63-.11-.63-.45-.2-.49-.53-.52-.46-.4-.91-.45a2.74,2.74,0,0,0-1.28.42c-.26.12-.91-.4-1.17-.2s-.31-.14-1-.34-1.65-.26-1.71,0-.63.34-.54.94.68.49.82.89-.28.25-.31.62-.4.35-.4.6.26.2.4.72.43.48.51,1.17-.23.54-.51.62,0,.43-.37.89-.74.94-.43,1.23,1.48.77,1.94,1.54a4.56,4.56,0,0,1,.28,2.82c-.14.86-1.11,1.06-1.82,1.8a2.23,2.23,0,0,1-1.79.66c-.34,0-.14.71.34,1.25s.08.72.34,1.29,0,1,.37,1.54.14.71-.28,1.08.17.17.2.66-.2.2-.57-.06-.71.49-.71.8-.89-.43-1.08-.4,0-.48-.46-.88-.91-.49-.91-.89-.88-.68-.88-1.14a6.51,6.51,0,0,0-.09-2,1.07,1.07,0,0,1,.15-1c.17-.31-.2-.8-.72-.8a17.69,17.69,0,0,0-1.93-.11,1.77,1.77,0,0,1-1.34-.26,4.8,4.8,0,0,0-1.76-.85,1.86,1.86,0,0,1-1.36-.94c-.09-.26-1-.46-1.17-.72a2.13,2.13,0,0,0-1.39-.34c-.34.06-1.2-.71-1.71-.68a13.06,13.06,0,0,0-1.91.57c-.2,0,0-.43.18-.63s-.43-1.06-.57-1.63-.34-1.2-.94-1.11a2.35,2.35,0,0,1-1.42-.34,5.86,5.86,0,0,1-.06-2.43c.14-.68.88-1.71.88-2.14s.49-.63.91-.74.09-.94.51-1,.46-.23.54-.57c0-.69.26-.77.91-.77s1.63-.23,1.48-.89-1.85-.17-1.85-.71-2.16-.57-2-.89,2.16.23,2.9.52a2.78,2.78,0,0,0,1.53.23c.6,0,.2-.8.31-1.12s1.26.49,1.91.32,1.28-1.52,1.82-1.89.06-.71-1-.62a2.93,2.93,0,0,1-2.22-.75c-.57-.42-.51-.77.09-.71s2,1.23,2.56,1.26,1.47-1.06,1.93-1.4-.43-.49-.74-.75.54-.42,1-.42.65.4.82.6,1-.15,1.37-.15-.06-.65-.71-.91c.43.06.88,0,1.11.43.33.66.54.23,1.11,0a2.67,2.67,0,0,0,1.16-.89c.32-.34.37.06.74-.48s-.17-1.06-.62-1.4,0-.69-.43-.92c.6-.42,1.05-.6,1.31-1s-.85-.48-.34-.77.08-.57-.43-.57-.94-.25-1-.68-.91-.14-1.45-.4a5.09,5.09,0,0,0-2-.17c-.28,0-.31,1.2.12,1.22s.77.49.4.63.06.6-.23.57-.74-.17-.82.57-.14,1-.63,1.29-.11-.83-.57-.8-.51.91-.17,1,.4.37.49.8-.63.11-.91.62-.32-.22-.72-.57-.88-.91-.85-1.34a.57.57,0,0,1,.54-.57c.31-.06,0-.34,0-.86s-.4-.34-.85-.88-.94-.54-1.19-.28-.09.74-.49.91-.22,1-.57,1-.14-1.4-.42-1.54c.6-.6.85-1.06.48-1.06a4.57,4.57,0,0,1-1.28-.51c-.26-.12-.68.48-1,.25s0-.8.06-1.11.45.14.74-.26-.8-.4-.8-.82-.85-.55-1.14-.69.2-.86.06-1.14-1.2-1.23-1.65-1.14-.57-.6-.31-.57.45-.15.93-.69.55-.71.2-.83c.69-.4,1.74,0,2.08-.25a25.32,25.32,0,0,0,1.85-2.54c.43-.6-.31-.66-1.34-.57s-1.25-.4-2.1-.46a5.87,5.87,0,0,0-2.68.43c-.22.25.43.48.35.77s-.6-.2-.83-.09.09.49,0,1.49a1.4,1.4,0,0,0,.48,1.42c.29.37.23.86.23,1.49s-.6.6-.8.74.51.37.4.77-.71-.23-1.05-.12-.63,1.09-.26,1.4.52.26.23.63-.6.92.09,1.46,1.93.48,2.58.91-.28.17,0,.66-.42.65-.4,1,.29.17.63-.45.6.17.57.71-.51.23-.88.77a1,1,0,0,1-1.25.51c-.55-.11-.23.78,0,1.26s-.06.66-.69.49-1-.58-.68-1.06.54-1.06.17-1-1.22,0-1.48-.43.17-.23.94-.14.11-.52.68-.52,1,.32,1.48-.11-.31-1.26-.71-1.11-1,.31-1-.09.68-.11,1.05-.2-.2-.6-.77-.46a1.21,1.21,0,0,1-1.42-.31c-.45-.48-1.28-.77-1.48.34s-1,.52-1.31.89.37.62,1.14.65,1.34.75,1,.75-.2.54-.6.34-.8,0-.51.34-.12.48-.09.83-.6,0-1.19,0a10.44,10.44,0,0,0-2.5.31,2.36,2.36,0,0,1-2-.48c-.34-.37-.8-.32-1.37-.32s-.4-.54-1.14-.57-.57-.65-.65-1-1.57-.25-2.11.09-1.59.2-1.87.83.25.54.57.54.4-.51,1.19-.4,1.37-.83,1.71-.49-1.37,1-2.11,1.12-.57.71.14,1.77-.31.45-.31,1-1.33-.17-.8-.34.29-.72-.14-1.06-.71,0-.65-.37-.46,0-.86-.29-.6-.57-1.13-.28a10,10,0,0,1-2.37.4c-1.19.2-3.38.14-3.78-.26s1-1.11,1.45-1,.17-.46-.48-1-2.1-.83-2.08-.51-.82,0-1.87-.17-1.2-.57-1.88-.6a4.59,4.59,0,0,1-2.5-.86c-.8-.63-2.67-.46-2.9.11s-.85.55-1.48.55.28-.71.06-.83,0-.94-.43-1S55.06,39,54.2,38.92,53,36.87,52.27,36.35s-1.36-.54-.77.23-.51.23-.45.74-1,1.12-.94.83-.57-.6-1.25.2-1.17.69-1.23.4-2.07.74-2,1.09-.31.6-.85.57-.11-.49.31-.72a12,12,0,0,1,2.48-1.42c.68-.12,2-.66,2-1s-.66-.06-1.11-.15-1.25.43-2,.77-1.65.23-1.42.69-.72-.06-.91.26c0-.38-1-.69-1-.49s-.17.46-.85.46-1.37.48-.91.82.73.52.51.75-.94-.6-1.94-.52a4.76,4.76,0,0,1-3-1.4c0-.23-1.4-.09-2.37-.19a2.94,2.94,0,0,1-.59-.12,6.57,6.57,0,0,0-2.7-.74,5.35,5.35,0,0,1-2.42.08,3.2,3.2,0,0,0-2-.28c-.94.14-1.53-.52-2.73-.8a7.11,7.11,0,0,0-3.27.23c-.4.14-.31-.43-.82-.38s-.12-.22-.4-.65-1.71,0-2.22,0-.66-.26-.63-.52-.45-.17-.65.17a.7.7,0,0,1-1,.19l0,0c-.23-.22.48-.31.51-.57s-.74-.4-1-.48-.74.28-1.34.83a2.55,2.55,0,0,1-2,.42c-.54,0-1.22.06-1.2.37s.69.29.29.69-.54-.54-.94-.11A2.76,2.76,0,0,1,7.58,37c-.28-.06-1.22,1-1.5,1.25s.22.55-.54,1.37-2.82.66-3.25.66-.11.49-.34.8.26.6,1.42.91a4,4,0,0,1,2.1,2.23c.14.37,1.6,0,2.16.06s0,.88.43,1.11,1.23-.12,1.37.28-1,0-1.54.43-.85.63-1.08.32-1.17-.12-1.65-.06,0-.6,0-.89-.65-.48-1.59.06-.6.34-.71.77-.51-.25-1.11.12S.18,47,0,47.4s1.28.62,1.85.74-.68.48-.23.63.26.57,1,.94,2.3,0,2.73,0,.83.51,1.17.14,1.62-1.4,2.27-.8-.71.51-.37.88.77,1.26.14,1.72A1.82,1.82,0,0,1,7,51.76c-.34,0-.14.63-.68,1.06s-.94-.46-1.62-.46-.54.88-.51,1.31-1-.08-1.28.94-1.34.15-.63,1.15.6.37,1.16.77-.62,1.11,0,1.22S4.56,58.9,5,59.27s.91-.2,1.51-.23.31-.86.65-.54S8,59.72,7.63,60s0,.94-.11,1.29,1.31.22,1.39-.18,1.17-.51,1.77.15.8.77.8.25.51-1.08.54-.65.51.54,1.39.14c-.6,1.39,0,2.54-.42,2.66s-.83,1.28-1.57,1.37-2,1.48-2.16,1.71-1.76-.46-2,.2S6.08,68,6.33,68.29s1.48-.49,1.54-.83a1.56,1.56,0,0,0,1.5-.37c.26-.23.69-.14.94-.12s.37-.31,1.14-.45.6-.37.77-.77a6.81,6.81,0,0,1,2.33-1.35c.34-.08.14-.65.51-.68a3.53,3.53,0,0,0,1.42-.89c.49-.4.6-.22,1-.37s.09-.88.45-.94a.73.73,0,0,0,.66-.66c0-.31-.94-.31-1-.51s.74-.94,1.06-.91a.9.9,0,0,0,.85-.77c0-.46.48-.54.85-.94S20.58,57,21,57s.71-.55,1.11-.78,0,.29.77.32a3.17,3.17,0,0,0-1.31.74c-.52.49-.12.63-.52,1.17s-.42.89.09.94,0,.43-.46.57-.14.43.52.43,1.62-.94,2.53-1.4,1.59,0,1.85-.08-.29-.52,0-.66-.37-.23-.56-.77.31-.2.42-.63.43-.26.71-.06.69-.2.94.35.54-.15,1,.23-.08.31-.57.42c.51.15.83,0,1.17.26s.48.17.77-.11c.28.48.88.57,1.73.71A13.69,13.69,0,0,0,34,58.52c.4,0,.26.6,1.14.77s1.11-.88,1.56-.51,0,.51-.25.8.28.32.62.46a5.05,5.05,0,0,1,1.51.74A4.62,4.62,0,0,0,40,62c.91.45,0-1.15.74-.63s.45,0,1,.54.37-.23.11-1.08.26-.29.52.11a2.29,2.29,0,0,1,.08,1.69c-.17.51-1,.08-.94-.2s-.85-.18-.88.22a1.69,1.69,0,0,0,1.05,1.26c.46.09.12.8.4.89s.37.85.6.74.15-1-.11-1.4-.14-1,.2-.86,0,.72.17.91.37-.2.77-.42-.17-.89,0-1.23.6.28.77.88-.43.57-.43.89-.54.17-.71.34S43.29,66,43.51,66s.37-.94.51-.45.69-.63.83-.17.82,1,1.08.85-.11-.6-.51-.63-.34-.68,0-.71,1,.94,1,1.28-.35.32-.66.66-.74-.57-1.11-.54,0,.6.17,1-.45.94,0,1.26.34-.2.43-.43.45.06.71.25.28-.45.28-.71.43-.11.66.23.25-.37.6-.31.11.6.11.91.6-.26.54.08.25.56.54.8-.62.29-.34.55,0,.65.23,1a.83.83,0,0,0,1.11-.06c.31-.26.54.31.28.74a.36.36,0,0,0,.06.49.35.35,0,0,0,.48-.06c.26-.32.8.51,1.06.66-.34.57-.29,1.31,0,1.34s.28.43.28.68,1,.63,1.37.52.71.22.88.54.85.54,1.11.34.42.37.48.77.63.17,1,.14.54.46.77.37c.5-.19.65.69,1,1.2.55.63.21,1,.35,1.51s0,1.31-.4,1.31a.34.34,0,0,1-.37-.31.34.34,0,0,1,.2-.34c.31-.17.14-.8-.17-.8-.24-.65-.2-.85-.11-1,.2-.37-.43-.12-.8-.52s-1.34-.31-1.48-.68-1-1.71-1.51-1.68a2.38,2.38,0,0,1-1.68-.38c-.57-.42-.94-.45-1.34-.2s.43.32.4.6.26.46.6.4.54.66.89.69.45.57.85.57.48.46.68.72.66,0,.66.28.45.44.57.73a3.85,3.85,0,0,0,.68,1.81c.45.6.14,1,.57,1.2-.4.37-.12.74-.26,1.6s-.11,2.63-.2,3.17-.71,1.43-.34,2a2.65,2.65,0,0,1,.42,2.08A1.93,1.93,0,0,0,56.86,93c.31.54,0,1.48.4,1.68a3.21,3.21,0,0,1,1,1.11c.32.52.6.2.66.72s0,.6.51.8.17.71.17,1,.6.8,1.34,1.45.11,1.2.65,1.2a3.21,3.21,0,0,1,1.59.66c.54.34.72.14,1.08.23a2.53,2.53,0,0,1,1.2,1.43,4.9,4.9,0,0,0,.29.81,5.23,5.23,0,0,0,.68,1.07,6.61,6.61,0,0,1,1.08,2.51c0,.46.88.83,1.59,1.28a1.72,1.72,0,0,1,.62,1.72c-.08.25-1-.17-1,.08S69.8,112,70.25,112s.69.23,1.4.86.65,1.37.37,1.6.57.71,1.48,1.31a3.22,3.22,0,0,1,1.36,1.66c.09.31.48,0,.63-.4s-.29-.55-.29-1-.74-.4-1.08-.46,0-.8-.31-1.14a4.93,4.93,0,0,1-.83-1.82c-.17-.63-1-1.26-1.42-2a4.67,4.67,0,0,0-1-1.4c-.26-.17.37-.42.14-.68s-.57-.23-1-.43a1.09,1.09,0,0,1-.71-1,8.38,8.38,0,0,0-.43-1.91c.6,0,.71.2.91.09a.51.51,0,0,1,.68.26v0c.15.32.63,0,.86.17s-.51.32.23,1.63.22.57.22,1.45.46.49.6.35.54.28.91.74,1.08.48,1.08.74a.87.87,0,0,0,.63.86c.48.08.57.62.88.68s.37.4.2.77,0,.69.8,1,.43.37,1,1A38.18,38.18,0,0,1,80.35,118a5.33,5.33,0,0,1,.63,1.4c.14.4-.29.6-.06,1s-.43.2-.4.45.4,1.54,1,1.6,1.34.83,1.85,1.26,1.28.34,2,.63A22.22,22.22,0,0,0,88,125.55a11.33,11.33,0,0,1,2.9,1.26,2.82,2.82,0,0,0,2.59-.15,2.81,2.81,0,0,1,2.34.37,6.89,6.89,0,0,1,1.38,1.07,18,18,0,0,0,1.41,1.21c.54.34,1.42,0,1.79.32a7.13,7.13,0,0,0,2.53.88c.53-.26.62-.33.8-.17.1.66.09.84.32,1,.45.26,1.08,1.25,1.56,1.51a.9.9,0,0,1,.44.52c-.35.68-.38,1.37.24,1.62s.43-.14.74-.14.29.49.57.49.94.34.91.8.23.65.74.65a3,3,0,0,1,2,.77c.43.52.69.17.94.63s.86,0,1-.26-.31-.4-.37-.71.57-.2.68-.63,1-.62,1.43-.45.74.45.37.88.28.89.75,1.34c.16.15.31.29.41.4.4.43.14.77.26,1s.23.57,0,.71,0,1.72.23,2,0,.54-.29,1.12-.54.82-1,.85-.48.83-.65.83-.24.29-.26.54c0,.43-.4.6-.88.63s-.43.57-.43.94-.4.37-.57.77.06.49-.34.69a.57.57,0,0,0-.37.71.56.56,0,0,0,.09.17c.22.34,0,.66-.09.86s.34.28.74.65.46-.14.63.15a.6.6,0,0,1-.37.76.45.45,0,0,1-.2,0,2,2,0,0,0-1.17,1.14c-.23.48.4,1.43.48,1.77-.45.65.55,1.11,1,1.45s.86,1.32,1.28,1.77.46.86.91,2a20.27,20.27,0,0,0,2,3.8c.62.8.91,1.43.76,1.66a1.11,1.11,0,0,0,.49,1.17,10.2,10.2,0,0,0,2,1.42c1.19.6,3.38,1.74,3.7,2.29a4.63,4.63,0,0,0,1.53,1.17,11.09,11.09,0,0,0,.09,1.4,10.5,10.5,0,0,1,.08,3.31,16.8,16.8,0,0,1-.51,1.94c-.17.48.4.51.17.74s-.14.8-.14,1.71a29.33,29.33,0,0,1-.57,2.94c0,.49-.4.8-.34,1.34a1.2,1.2,0,0,1-.57,1.11c-.31.26.51,1.09.48,1.55s-.62.65-.48,1.4a14.76,14.76,0,0,1,0,2.82c0,.32-.37.29-.28.89s-.37.74-.46,1.6a12.16,12.16,0,0,1-1,2.74c-.26.65-.26,1-.6,1s-.43.38-.17.95-.17,1.05.17,1.62.23.77.06,1.32-.4.57-.4,1.08-.4.94-.17,1.51.17.77-.12.77-.42.46-.54,1.4-.08.92.6.86.14-2.31.57-2.31.06-.37.48-.49.06.4.34.49c-.31.82.18,1.34,0,1.65s-.49.66-.32,1-.2.34-.22.83.25.51,0,.62a1.26,1.26,0,0,0,0,1.32c.17.34-.37.14-.65.37s.28.54.11.86-.62-.18-.82-.35.31-.51.57-.85-.26-1.12-.69-.95.43.66.43,1-.71-.08-.68.32-.49.25-.74.54.34.54,0,.63-.76.48-.8.77c.32-.23.77-.32.91.05s.35,0,.74.09.35.68.12.65-.46.38-.4.8.85,0,1.19.12c-.17.31-.62,0-.82.31s-.51.17-.77.06-1.17.48-.85.71.28.6.48.57a.87.87,0,0,0,.63-.4c.11-.23.51-.45.54.06s-.54.26-.66.54a1.88,1.88,0,0,1-.68.77.31.31,0,0,0-.08.43.3.3,0,0,0,.36.12c.68.45.8.17.71-.12s.2-.91.55-.6-.18.63-.18.91-.2.66-.2,1-.37.15-.34.49-.8.11-.42.34-.23.54,0,.77.37-.31.68-.2.26.2.65,0c-.11.54-.51,1-.34,1s.66-.29.77.08a.74.74,0,0,1,1-.12.71.71,0,0,1,.21.27c.12.34-.71.54-1.14.45s-.65.4-.37.77.63,0,.94-.31,1.85-.23,2,.11-.72.06-.8.26-.72.37-.8.14-.69.09-.71.46c.53.65.4,0,1.19,0s1.22-.75,1.45-.29-.65.83-1,.54-.68.2-.65.63-.91-.11-1.37-.17-.25.43.15.86.62-.06,1.1.25.49.66.83.35c-.45-.58-.26-1.06.28-.8a.75.75,0,0,0,1-.37.7.7,0,0,0,0-.55c-.17-.68.49-1,1.14-1.22s.32.42-.17.62-.57.34-.2.74.85-.25,1.17.06-.57.26-.71.57.54.69,0,.92-.25-.95-.54-1.06-.54.14-.25.8-.34.09-.63-.23-.68.14-.34.49-.65,0-.65.51.42.09.93.2.29.86.66,1.14.05-.91.45-1,0,.91.91,1.2.06-.17.46-.46.91.86,1.33,1,.15-.52-.17-.86.32-.14.74,0,.77.2.86-.12c.38,0,.61.12.8-.08s1.14-.14,1.59-.43-.14-.37-.85-.4-2.11-1.34-2.54-1.68-.11-.69-.62-.6c.37-.68,0-1.16-.34-1.24s-1.28.07-1.14-.5c.48-.34,1.2.13,1.36,0s-.71-.94-.68-1.2-.14-.69-.14-1-.14-.92.26-1.2.42-.57.68-.52.77-.22.8-.91.34-.94.91-1.43,1.65-1,1.51-1.25.22-1,.22-1.26-1-.23-1.28-.35-1.45-.91-.88-2a2.53,2.53,0,0,1,2.1-1.2c.34,0,0-.51.31-.68s.34-.46.34-.89,0-1.25.52-1.31c0-.51-.12-.88.4-.94s.34.43.71.43,1-.63.51-1-.63.17-.88.23-.46-.35-.71-.35-.09-.71-.2-1a1.43,1.43,0,0,1-.06-1.2c.23-.31,1.19.49,2,.54s1.48-.42,1.48-.74-.4-.88.11-1.22.09-.46-.06-.92.23-.74.46-.51,1.9.08,3.3-.2,2.36-.8,2.45-1.2a10.77,10.77,0,0,1,1.16-1.69c.2-.34,0-.77-.54-.85s-.54-.74-.23-1.12-.17-.71-.71-.77-1.39-.42-.91-.88c.58,0,.7.2,1,.17a3.18,3.18,0,0,1,1.65.43c.62.28.4-.09,1,0a2.76,2.76,0,0,0,1.93-.26,4.4,4.4,0,0,0,1-1.2,2.4,2.4,0,0,1,.6-.59c.8-.57.6-.92,1-1.6s.06-1,.69-1.57-.12-1,.68-1.37.68.34,0,1.17c.94-.2,1.25-1.09,1.73-2.09s.86-1.31,1.28-1.36.43-1.12.37-1.86-.28-1.43,0-1.91,0-.94.4-.94,1-.6,1.62-1.23a2.21,2.21,0,0,1,1.68-.74c.66-.06.28-.29.71-.4s.71-.52,1-.77,1.45,0,2.14,0,1.13.06,1.13-.37a.75.75,0,0,1,.71-.77h0c.4,0,.57-.11.57-.68a1.32,1.32,0,0,1,.51-1.17c.35-.26.4-.83.52-1.2s.48-.14.48-.69.2-1.14.2-1.57.46-.37.65-.68-.17-.71.15-1.6a7.06,7.06,0,0,0,0-2.51c0-.8,0-1.63.28-1.89-.31-.62-.06-.94.14-.88s.43.48.8.26a5.45,5.45,0,0,0,1-2c.31-.8.82-.78,1.22-.95a5.16,5.16,0,0,0,1.79-2.54c.54-1.4,0-2.76-.26-3.74s-.54-.77-1.1-.74-1.67-.1-3.09-1.64Zm-43.38-28.53.1.05c.46.23.57-.23,1.59-.57s2.68.28,2.68-.51-2.73-1.66-3.42-1.43a1.39,1.39,0,0,1-.7,0c-.72-.19-1.61-.65-2-.36s.86,1.25.86,1.77-2.29-.1-2.5.45c-.12.29.8.69,1.64.4A2.11,2.11,0,0,1,123.89,124.21Zm105.2-36.1c-.21,0-.26.36-.8.68s0,1.79.53,1.72.48-2.38.27-2.4Z"/><circle class="cls-2" cx="85.9" cy="93.34" r="4.05"/><circle class="cls-3" cx="85.9" cy="93.34" r="3.55"/><circle class="cls-2" cx="242.44" cy="117.25" r="4.87"/><circle class="cls-4" cx="242.44" cy="117.25" r="4.37"/><circle class="cls-2" cx="353.32" cy="50.94" r="4.39"/><circle class="cls-5" cx="353.32" cy="50.94" r="3.89"/><circle class="cls-2" cx="392.46" cy="183.56" r="3.05"/><circle class="cls-6" cx="392.46" cy="183.56" r="2.55"/><path class="cls-2" d="M362,110.19a3.81,3.81,0,1,1,3.8-3.81A3.82,3.82,0,0,1,362,110.19Z"/><path class="cls-7" d="M362,103.08a3.31,3.31,0,1,0,3.3,3.3,3.31,3.31,0,0,0-3.3-3.3m0-1a4.31,4.31,0,1,1-4.31,4.3A4.31,4.31,0,0,1,362,102.08Z"/></g></g></svg>